<svg width="119" height="106" viewBox="0 0 119 106" fill="none" xmlns="http://www.w3.org/2000/svg">
<path d="M11.9494 57.8891H22.9698L34.9759 35.6144L47.1612 62.344L49.2443 56.8421H64.4982L80.7378 20.1557L91.1983 54.3251H110.305C115.64 48.1535 118.434 40.2053 118.127 32.0724C117.819 23.9394 114.433 16.2222 108.647 10.4662C102.552 4.40508 94.2854 1 85.6656 1C77.0458 1 68.7791 4.40508 62.6839 10.4662L59.324 13.8074L55.9641 10.4439C49.8261 4.60704 41.6345 1.39115 33.1422 1.48451C24.65 1.57786 16.5318 4.97305 10.5251 10.9435C4.51832 16.9139 1.10018 24.9852 1.00217 33.4301C0.90415 41.875 4.13404 50.0227 10.0006 56.1294L11.9494 57.8891Z" fill="#A23232" stroke="#263238" stroke-width="0.944368" stroke-linejoin="round"/>
<path d="M86.9872 59.7823L79.7746 36.1711L68.2165 62.2994H53.1641L47.6763 76.8893L34.5727 48.2663L26.3745 63.5468H17.6388L59.324 105L104.817 59.7823H86.9872Z" fill="#A23232" stroke="#263238" stroke-width="0.944368" stroke-linejoin="round"/>
</svg>
