<svg width="393" height="395" viewBox="0 0 393 395" fill="none" xmlns="http://www.w3.org/2000/svg">
<path d="M368.372 94.2549C367.124 92.1482 365.808 90.0679 364.422 88.0139C346.118 60.8774 314.613 42.3203 283.605 33.97C270.005 30.3514 256.032 28.3129 241.964 27.8949C149.843 24.7349 113.147 97.3754 82.7005 116.114C52.2539 134.853 5.40691 166.824 8.52741 233.966C11.6479 301.109 60.0591 364.316 153.745 368.266C247.431 372.216 253.68 329.991 305.986 314.42C340.604 304.087 365.236 269.185 377.244 236.929C393.652 192.934 392.878 135.833 368.372 94.2549Z" fill="#E74141"/>
<path opacity="0.7" d="M368.372 94.2549C367.124 92.1482 365.808 90.0679 364.422 88.0139C346.118 60.8774 314.613 42.3203 283.605 33.97C270.005 30.3514 256.032 28.3129 241.964 27.8949C149.843 24.7349 113.147 97.3754 82.7005 116.114C52.2539 134.853 5.40691 166.824 8.52741 233.966C11.6479 301.109 60.0591 364.316 153.745 368.266C247.431 372.216 253.68 329.991 305.986 314.42C340.604 304.087 365.236 269.185 377.244 236.929C393.652 192.934 392.878 135.833 368.372 94.2549Z" fill="white"/>
<path d="M338.905 35.9055C336.899 33.8199 333.375 31.9002 327.356 31.7501C313.752 31.4183 317.37 41.08 313.752 43.3631C310.134 45.6462 309.107 42.0359 305.457 44.3585C301.807 46.6811 303.466 51.3263 300.488 51.9899C297.509 52.6535 293.52 48.98 289.87 51.35C286.22 53.72 286.22 55.6634 284.561 55.6634C282.902 55.6634 279.584 54.3362 277.593 55.6634C275.603 56.9906 273.28 58.6496 273.28 58.6496H308.901" stroke="#263238" stroke-width="0.79" stroke-linecap="round" stroke-linejoin="round"/>
<path d="M342.65 41.87C342.326 41.712 341.986 41.554 341.623 41.396C341.462 40.1571 341.045 38.9652 340.399 37.8963" stroke="#263238" stroke-width="0.79" stroke-linecap="round" stroke-linejoin="round"/>
<path d="M313.459 58.6259H357.21C357.21 58.6259 358.205 55.6397 354.555 53.6489C350.906 51.6581 349.254 53.3171 347.927 51.6581C346.742 50.1808 350.558 46.6021 344.38 42.7864" stroke="#263238" stroke-width="0.79" stroke-linecap="round" stroke-linejoin="round"/>
<path d="M97.3076 49.77C96.5176 48.98 95.1667 48.19 92.8204 48.19C87.5432 48.0636 88.9573 51.8003 87.5432 52.7009C86.1291 53.6015 85.742 52.1874 84.32 53.088C82.898 53.9886 83.53 55.7898 82.3924 56.0505C81.2548 56.3112 79.6827 54.8892 78.2686 55.7898C76.8545 56.6904 76.8545 57.4646 76.2067 57.4646C75.5589 57.4646 74.2791 56.9511 73.5049 57.4646C72.7307 57.9781 71.8301 58.6259 71.8301 58.6259H85.6551" stroke="#263238" stroke-width="0.79" stroke-linecap="round" stroke-linejoin="round"/>
<path d="M98.7612 52.14L98.3583 51.9583C98.3001 51.4765 98.1384 51.013 97.8843 50.5995" stroke="#263238" stroke-width="0.79" stroke-linecap="round" stroke-linejoin="round"/>
<path d="M87.4326 58.6259H104.41C104.501 58.2336 104.448 57.8215 104.259 57.4657C104.07 57.1099 103.759 56.8345 103.383 56.6904C101.969 55.9004 101.321 56.564 100.807 55.9004C100.294 55.2368 101.826 53.9333 99.4327 52.456" stroke="#263238" stroke-width="0.79" stroke-linecap="round" stroke-linejoin="round"/>
<path d="M287.595 27.8712C286.805 27.0812 285.462 26.2912 283.108 26.2912C277.87 26.1332 279.245 29.8699 277.87 30.81C276.495 31.7501 276.069 30.2886 274.647 31.1971C273.225 32.1056 273.857 33.8989 272.719 34.1596C271.582 34.4203 270.01 32.9983 268.595 33.8989C267.181 34.7995 267.142 35.55 266.494 35.55C265.846 35.55 264.566 35.0365 263.792 35.55C263.018 36.0635 262.117 36.7113 262.117 36.7113H275.942" stroke="#263238" stroke-width="0.79" stroke-linecap="round" stroke-linejoin="round"/>
<path d="M289.049 30.178L288.646 29.9963C288.587 29.5145 288.426 29.0509 288.172 28.6375" stroke="#263238" stroke-width="0.79" stroke-linecap="round" stroke-linejoin="round"/>
<path d="M277.72 36.6955H294.697C294.789 36.3033 294.735 35.8911 294.546 35.5353C294.357 35.1795 294.046 34.9041 293.67 34.76C292.256 33.97 291.608 34.6336 291.095 33.97C290.581 33.3064 292.09 32.0266 289.72 30.5414" stroke="#263238" stroke-width="0.79" stroke-linecap="round" stroke-linejoin="round"/>
<path d="M207.56 334.17C285.659 334.17 348.97 270.859 348.97 192.76C348.97 114.661 285.659 51.35 207.56 51.35C129.461 51.35 66.15 114.661 66.15 192.76C66.15 270.859 129.461 334.17 207.56 334.17Z" stroke="#263238" stroke-width="0.79" stroke-linejoin="round" stroke-dasharray="1.58 1.58"/>
<path d="M313.128 362.571H344.514" stroke="#263238" stroke-width="0.79" stroke-miterlimit="10"/>
<path d="M59.2454 362.57H307.542" stroke="#263238" stroke-width="0.79" stroke-miterlimit="10"/>
<path d="M322.236 277.495C321.941 277.498 321.65 277.425 321.391 277.282C321.183 277.172 320.999 277.021 320.849 276.839C320.699 276.658 320.587 276.448 320.519 276.222C320.451 275.997 320.428 275.76 320.451 275.526C320.475 275.291 320.545 275.064 320.656 274.857L326.51 263.907C326.745 263.508 327.125 263.214 327.571 263.089C328.017 262.963 328.494 263.015 328.903 263.234C329.311 263.452 329.62 263.821 329.763 264.261C329.906 264.702 329.873 265.181 329.67 265.598L323.808 276.547C323.657 276.833 323.43 277.072 323.154 277.239C322.877 277.406 322.56 277.495 322.236 277.495Z" fill="#263238"/>
<path d="M344.901 277.495C344.577 277.496 344.258 277.408 343.98 277.241C343.701 277.074 343.474 276.834 343.321 276.547L337.46 265.598C337.257 265.181 337.224 264.702 337.367 264.261C337.51 263.821 337.818 263.452 338.227 263.234C338.636 263.015 339.113 262.963 339.559 263.089C340.005 263.214 340.385 263.508 340.62 263.907L346.474 274.857C346.585 275.064 346.655 275.291 346.679 275.526C346.702 275.76 346.679 275.997 346.611 276.222C346.543 276.448 346.431 276.658 346.281 276.839C346.131 277.021 345.947 277.172 345.739 277.282C345.483 277.424 345.194 277.498 344.901 277.495Z" fill="#263238"/>
<path d="M333.565 270.101C342.426 270.101 349.61 262.917 349.61 254.056C349.61 245.195 342.426 238.011 333.565 238.011C324.704 238.011 317.52 245.195 317.52 254.056C317.52 262.917 324.704 270.101 333.565 270.101Z" fill="#E74141" stroke="#263238" stroke-width="0.79" stroke-linecap="round" stroke-linejoin="round"/>
<path d="M333.565 267.81C341.161 267.81 347.319 261.652 347.319 254.056C347.319 246.46 341.161 240.302 333.565 240.302C325.969 240.302 319.811 246.46 319.811 254.056C319.811 261.652 325.969 267.81 333.565 267.81Z" fill="white" stroke="#263238" stroke-width="0.79" stroke-linecap="round" stroke-linejoin="round"/>
<path d="M333.818 243.873C333.818 243.873 333.565 255.075 333.565 254.056L336.362 259.657" stroke="#263238" stroke-width="0.79" stroke-miterlimit="10"/>
<path d="M342.65 237.253C342.345 235.133 341.286 233.195 339.667 231.792C338.049 230.39 335.979 229.618 333.838 229.618C331.696 229.618 329.626 230.39 328.008 231.792C326.389 233.195 325.33 235.133 325.025 237.253H342.65Z" fill="white" stroke="#263238" stroke-width="0.79" stroke-linecap="round" stroke-linejoin="round"/>
<path d="M333.565 255.075C334.128 255.075 334.584 254.619 334.584 254.056C334.584 253.493 334.128 253.037 333.565 253.037C333.002 253.037 332.546 253.493 332.546 254.056C332.546 254.619 333.002 255.075 333.565 255.075Z" fill="#263238" stroke="#263238" stroke-width="0.79" stroke-miterlimit="10"/>
<path d="M361.357 173.153C361.358 175.476 360.901 177.776 360.013 179.923C359.124 182.069 357.822 184.02 356.179 185.662C354.536 187.305 352.586 188.608 350.439 189.496C348.293 190.385 345.992 190.842 343.669 190.841C342.681 190.845 341.695 190.76 340.722 190.588C336.608 189.885 332.874 187.749 330.182 184.558C327.491 181.367 326.014 177.327 326.014 173.153C326.014 168.978 327.491 164.938 330.182 161.747C332.874 158.556 336.608 156.421 340.722 155.717C341.696 155.551 342.682 155.469 343.669 155.472C345.992 155.471 348.291 155.928 350.437 156.816C352.583 157.704 354.533 159.006 356.176 160.648C357.819 162.29 359.122 164.239 360.011 166.385C360.9 168.53 361.357 170.83 361.357 173.153Z" fill="#E74141" stroke="#263238" stroke-width="0.79" stroke-linecap="round" stroke-linejoin="round"/>
<path d="M341.947 155.425C349.689 157.305 355.464 164.834 355.464 173.152C355.464 177.332 353.983 181.377 351.285 184.568C348.586 187.76 344.844 189.893 340.722 190.588" stroke="#263238" stroke-width="0.79" stroke-linecap="round" stroke-linejoin="round"/>
<path d="M331.116 160.41C334.126 160.41 338.732 161.397 342.666 166.208C349.167 174.148 357.826 174.898 360.717 167.654" stroke="#263238" stroke-width="0.79" stroke-linecap="round" stroke-linejoin="round"/>
<path d="M326.06 174.511C326.06 174.511 350.084 185.516 361.349 173.152" stroke="#263238" stroke-width="0.79" stroke-linecap="round" stroke-linejoin="round"/>
<path d="M332.822 186.898C335.917 187.31 339.065 186.896 341.947 185.697C347.722 183.169 352.849 181.85 355.298 183.533C355.644 183.738 355.946 184.012 356.185 184.336C356.423 184.66 356.595 185.029 356.688 185.421" stroke="#263238" stroke-width="0.79" stroke-linecap="round" stroke-linejoin="round"/>
<path d="M326.85 103.048C326.85 110.948 320.412 119.274 314.21 119.274C312.693 119.274 308.767 119.274 307.369 118.745C299.721 115.79 296.767 108.475 296.767 102.107C296.767 98.8053 297.762 95.2029 300.377 92.9988C303.845 90.0758 307.669 91.9165 311.698 91.9165C315.205 91.9165 320.119 90.4787 322.758 92.4537C326.21 94.9343 326.85 99.1292 326.85 103.048Z" fill="white" stroke="#263238" stroke-width="0.79" stroke-linejoin="round"/>
<path d="M322.726 97.7546C322.221 98.6394 320.688 98.7026 319.306 97.9047C317.923 97.1068 317.22 95.748 317.726 94.8711C318.231 93.9942 319.764 93.9231 321.146 94.721C322.529 95.5189 323.24 96.8777 322.726 97.7546Z" fill="white" stroke="#263238" stroke-width="0.79" stroke-linejoin="round"/>
<path d="M310.932 93.1252L311.2 92.5011L314.953 83.7558L312.464 83.3687L309.976 92.1693L310.932 93.1252Z" fill="#263238" stroke="#263238" stroke-width="0.79" stroke-linejoin="round"/>
<path d="M311.508 87.1923C311.508 87.1923 309.786 83.3687 307.297 82.7999C304.809 82.2311 297.928 85.478 297.928 85.478C297.928 85.478 301.365 87.9586 304.043 88.7249C306.721 89.4912 311.508 87.1923 311.508 87.1923Z" fill="#E74141" stroke="#263238" stroke-width="0.79" stroke-linejoin="round"/>
<path d="M216.732 77.5859C216.179 74.4654 215.397 66.3363 216.068 63.3659C216.465 61.551 216.614 59.6908 216.511 57.8359V46.847C216.833 45.3772 216.795 43.8513 216.4 42.3993C215.729 40.0293 210.609 35.0444 210.609 35.0444V33.2669H210.286L208.871 33.18H208.461H208.05L206.636 33.2353H206.312V35.0128C206.312 35.0128 201.193 40.0293 200.521 42.3677C200.134 43.8329 200.11 45.3702 200.45 46.847V57.7648C200.347 59.6197 200.496 61.4799 200.892 63.2948C201.564 66.2968 200.782 74.4259 200.229 77.5148C199.676 80.6037 199.897 82.9737 201.674 83.8348C203.16 84.5774 207.205 84.0876 208.5 83.898C209.804 84.0876 213.84 84.5774 215.326 83.8348C217.04 83.0448 217.293 80.7064 216.732 77.5859Z" fill="white" stroke="#263238" stroke-width="0.79" stroke-linejoin="round"/>
<path d="M214.559 63.9268C214.883 62.369 215.006 60.7759 214.923 59.1868V53.8859H202.03V59.1868C201.947 60.7759 202.069 62.369 202.393 63.9268C202.923 66.4943 202.299 73.4068 201.856 76.077C201.414 78.7472 201.588 80.7301 203.018 81.4885C204.21 82.1205 207.449 81.7018 208.492 81.5438C209.535 81.7018 212.774 82.1205 213.967 81.4885C215.397 80.6985 215.547 78.7393 215.128 76.077C214.709 73.4147 214.03 66.4943 214.559 63.9268Z" fill="#E74141"/>
<path d="M211.107 30.6994H205.759V33.7093H211.107V30.6994Z" fill="#263238" stroke="#263238" stroke-width="0.79" stroke-linejoin="round"/>
<path d="M200.742 45.7331H216.337" stroke="#263238" stroke-width="0.79" stroke-linejoin="round"/>
<path d="M207.039 56.8721H215.665" stroke="#263238" stroke-width="0.79" stroke-linejoin="round"/>
<path d="M201.303 56.8721H203.894" stroke="#263238" stroke-width="0.79" stroke-linejoin="round"/>
<path d="M95.6565 99.4768H99.5433L103.778 91.5768L108.075 101.057L108.81 99.1055H114.19L119.917 86.0942L123.607 98.2128H130.345C132.227 96.024 133.212 93.2051 133.104 90.3206C132.996 87.4362 131.801 84.6992 129.761 82.6577C127.611 80.5081 124.696 79.3004 121.655 79.3004C118.615 79.3004 115.7 80.5081 113.55 82.6577L112.365 83.8427L111.18 82.6498C109.015 80.5797 106.126 79.4391 103.131 79.4723C100.136 79.5054 97.2727 80.7095 95.1542 82.827C93.0357 84.9445 91.8301 87.8071 91.7956 90.8022C91.761 93.7973 92.9001 96.6869 94.9692 98.8527L95.6565 99.4768Z" fill="#E74141" stroke="#263238" stroke-width="0.79" stroke-linejoin="round"/>
<path d="M122.122 100.148L119.578 91.7743L115.501 101.041H110.193L108.257 106.216L103.635 96.064L100.744 101.483H97.6631L112.365 116.185L128.41 100.148H122.122Z" fill="#E74141" stroke="#263238" stroke-width="0.79" stroke-linejoin="round"/>
<path d="M58.7082 167.606C58.7082 167.606 57.9893 165.236 55.8168 164.715C53.6443 164.194 49.0702 164.952 48.3513 162.306C47.6324 159.659 50.9978 160.378 50.2789 158.205C49.56 156.033 44.2591 156.041 43.0504 151.941C41.8417 147.841 43.5323 143.511 46.6607 144.957C49.7891 146.403 51.2427 152.423 52.4435 154.832C53.6443 157.242 53.4073 152.423 56.7806 151.941C60.1539 151.459 63.5272 154.113 61.3626 157.471C59.198 160.828 59.277 163.467 59.672 165.181C59.9485 166.374 60.0196 166.279 60.0196 166.279L58.7082 167.606Z" fill="#E74141" stroke="#263238" stroke-width="0.79" stroke-linejoin="round"/>
<path d="M46.6686 151.19C46.0011 150.22 45.5239 149.131 45.2624 147.983" stroke="#263238" stroke-width="0.79" stroke-miterlimit="10"/>
<path d="M59.4982 167.038C58.975 164.934 57.9288 162.996 56.4567 161.405C53.9366 158.585 50.6739 156.665 48.0827 153.244C47.8694 152.968 47.6798 152.707 47.4981 152.454" stroke="#263238" stroke-width="0.79" stroke-miterlimit="10"/>
<path d="M66.2685 163.68C66.2685 163.68 55.2559 165.884 55.2559 176.32C55.2559 186.756 84.9836 207.13 87.1877 203.299C89.3918 199.467 78.5688 176.628 75.8117 171.699C73.0546 166.769 70.1 163.127 66.2685 163.68Z" fill="white" stroke="#263238" stroke-width="0.79" stroke-miterlimit="10"/>
<path d="M58.4712 183.983C58.4712 183.983 62.3264 178.2 65.9367 176.518" stroke="#263238" stroke-width="0.79" stroke-miterlimit="10"/>
<path d="M77.7393 178.2C75.0426 179.327 72.5883 180.963 70.5108 183.019" stroke="#263238" stroke-width="0.79" stroke-miterlimit="10"/>
<path d="M72.47 196.031C73.6466 193.297 75.6749 191.016 78.2528 189.529" stroke="#263238" stroke-width="0.79" stroke-miterlimit="10"/>
<path d="M71.7195 173.144L69.31 174.59" stroke="#263238" stroke-width="0.79" stroke-miterlimit="10"/>
<path d="M81.5945 187.838L79.9118 188.32" stroke="#263238" stroke-width="0.79" stroke-miterlimit="10"/>
<path d="M77.7551 271.31C87.6592 271.31 95.6881 263.281 95.6881 253.377C95.6881 243.473 87.6592 235.444 77.7551 235.444C67.851 235.444 59.8221 243.473 59.8221 253.377C59.8221 263.281 67.851 271.31 77.7551 271.31Z" fill="#E74141" stroke="#263238" stroke-width="0.79" stroke-linecap="round" stroke-linejoin="round"/>
<path d="M82.424 240.95C82.424 244.015 79.6353 250.62 77.7551 250.62C75.8749 250.62 73.0862 244.015 73.0862 240.95C73.0862 237.885 75.8749 237 77.7551 237C79.6353 237 82.424 237.869 82.424 240.95Z" fill="white" stroke="#263238" stroke-width="0.79" stroke-linecap="round" stroke-linejoin="round"/>
<path d="M69.31 243.107C71.9644 244.639 76.5701 249.687 75.63 251.315C74.6899 252.942 67.3034 252.729 64.6411 251.196C61.9788 249.664 62.6029 246.796 63.543 245.169C64.4831 243.541 66.6635 241.574 69.31 243.107Z" fill="white" stroke="#263238" stroke-width="0.79" stroke-linecap="round" stroke-linejoin="round"/>
<path d="M64.6411 255.549C67.2955 254.017 74.9111 252.674 75.8275 254.301C76.7439 255.928 71.9723 262.106 69.3179 263.639C66.6635 265.171 64.4831 263.212 63.543 261.585C62.6029 259.957 61.9867 257.082 64.6411 255.549Z" fill="white" stroke="#263238" stroke-width="0.79" stroke-linecap="round" stroke-linejoin="round"/>
<path d="M73.0862 265.819C73.0862 262.754 75.8749 255.281 77.7551 255.281C79.6353 255.281 82.424 262.754 82.424 265.819C82.424 268.884 79.6353 269.769 77.7551 269.769C75.8749 269.769 73.0862 268.884 73.0862 265.819Z" fill="white" stroke="#263238" stroke-width="0.79" stroke-linecap="round" stroke-linejoin="round"/>
<path d="M86.1923 263.639C83.5379 262.106 79.1692 256.323 80.1172 254.696C81.0652 253.069 88.2068 254.017 90.8612 255.549C93.5156 257.082 92.9073 259.949 91.9672 261.585C91.0271 263.22 88.8467 265.171 86.1923 263.639Z" fill="white" stroke="#263238" stroke-width="0.79" stroke-linecap="round" stroke-linejoin="round"/>
<path d="M90.8691 251.22C88.2068 252.753 81.0573 253.416 80.1172 251.789C79.1771 250.161 83.5379 244.679 86.1923 243.099C88.8467 241.519 91.0271 243.533 91.9672 245.161C92.9073 246.788 93.5235 249.64 90.8691 251.22Z" fill="white" stroke="#263238" stroke-width="0.79" stroke-linecap="round" stroke-linejoin="round"/>
<path d="M341.465 315.558C341.465 315.558 342.129 313.148 342.152 312.99C342.405 311.157 341.82 307.46 339.956 306.575C339.643 306.434 339.303 306.36 338.96 306.359C338.616 306.357 338.276 306.428 337.962 306.567C337.647 306.705 337.365 306.909 337.135 307.163C336.904 307.418 336.729 307.718 336.622 308.045C336.125 309.419 336.757 311.102 337.507 312.263C338.392 313.63 341.465 315.558 341.465 315.558Z" fill="#263238"/>
<path d="M304.73 314.76C306.215 315.407 309.849 315.328 309.849 315.328C309.849 315.328 309.059 312.958 308.996 312.808C308.206 311.141 305.678 308.384 303.632 308.661C303.293 308.717 302.969 308.844 302.682 309.034C302.395 309.223 302.15 309.47 301.965 309.76C301.78 310.05 301.657 310.375 301.605 310.715C301.554 311.055 301.574 311.402 301.665 311.734C302.004 313.156 303.466 314.207 304.73 314.76Z" fill="#263238"/>
<path d="M305.986 325.283C307.566 325.504 310.766 324.564 311.018 324.493C311.552 326.346 312.209 328.162 312.986 329.928C313.436 330.963 313.918 331.99 314.408 333.009C314.115 332.582 313.847 332.219 313.807 332.148C312.598 330.749 309.438 328.759 307.535 329.564C307.222 329.708 306.943 329.915 306.715 330.174C306.488 330.432 306.317 330.735 306.214 331.064C306.111 331.392 306.079 331.739 306.118 332.08C306.158 332.422 306.269 332.752 306.444 333.048C307.147 334.328 308.814 334.96 310.205 335.158C311.595 335.355 314.368 334.612 315.103 334.407C315.292 334.794 315.482 335.197 315.679 335.576C316.62 337.449 317.56 339.305 318.437 341.162C318.745 341.817 319.021 342.473 319.298 343.121C319.037 342.741 318.816 342.418 318.776 342.37C317.568 340.972 314.408 338.981 312.504 339.795C312.191 339.937 311.912 340.144 311.685 340.402C311.457 340.659 311.287 340.962 311.184 341.29C311.081 341.618 311.048 341.963 311.088 342.305C311.127 342.646 311.238 342.975 311.413 343.271C312.124 344.551 313.783 345.183 315.174 345.388C316.564 345.593 319.069 344.914 319.914 344.669C320.182 345.349 320.451 346.028 320.704 346.699C320.846 347.158 321.02 347.592 321.138 348.058C321.257 348.524 321.399 348.983 321.525 349.441C321.739 350.326 321.96 351.234 322.15 352.103C322.284 352.703 322.394 353.28 322.513 353.857C322.221 353.209 321.604 351.937 321.541 351.842C320.562 350.262 317.741 347.829 315.735 348.343C315.405 348.437 315.099 348.6 314.836 348.82C314.574 349.041 314.361 349.315 314.212 349.624C314.063 349.933 313.98 350.27 313.971 350.612C313.961 350.955 314.023 351.296 314.155 351.613C314.652 352.988 316.225 353.865 317.544 354.276C318.997 354.718 322.213 354.276 322.616 354.276C322.805 355.231 322.987 356.172 323.137 357.056C323.469 358.905 323.714 360.58 323.927 362.01H325.27C325.041 360.524 324.741 358.779 324.354 356.835C324.164 355.856 323.935 354.813 323.698 353.746C324.666 353.359 325.61 352.916 326.526 352.419C327.585 353.565 330.294 354.908 330.65 355.081C330.279 355.99 329.915 356.867 329.552 357.688C328.849 359.316 328.177 360.761 327.577 362.01H329.038C329.544 360.864 330.105 359.584 330.682 358.17C331.061 357.246 331.472 356.258 331.835 355.231C332.222 355.318 335.406 355.966 336.891 355.626C338.242 355.326 339.869 354.56 340.47 353.256C340.623 352.948 340.709 352.611 340.723 352.267C340.737 351.923 340.679 351.58 340.551 351.26C340.424 350.94 340.23 350.651 339.983 350.411C339.737 350.171 339.442 349.986 339.119 349.867C337.16 349.212 334.165 351.447 333.067 352.925C333.004 353.012 332.404 354.046 332.04 354.702C332.198 354.283 332.356 353.912 332.506 353.446C332.822 352.593 333.107 351.732 333.423 350.807C333.557 350.357 333.691 349.899 333.834 349.433C333.976 348.967 334.079 348.485 334.197 348.003C334.466 346.881 334.679 345.736 334.876 344.574C335.619 344.843 338.289 345.775 339.672 345.68C341.054 345.586 342.776 345.072 343.574 343.848C343.774 343.569 343.912 343.251 343.98 342.915C344.049 342.579 344.045 342.232 343.971 341.898C343.896 341.563 343.752 341.248 343.548 340.973C343.343 340.697 343.083 340.468 342.784 340.3C340.944 339.352 337.649 341.09 336.338 342.402C336.259 342.489 335.422 343.524 334.971 344.108C335.082 343.405 335.2 342.71 335.287 341.999C335.54 339.945 335.738 337.859 335.935 335.782C335.998 335.15 336.069 334.518 336.133 333.878C336.401 333.98 339.553 335.15 341.102 335.039C342.476 334.944 344.198 334.439 344.996 333.214C345.196 332.935 345.334 332.617 345.402 332.281C345.471 331.945 345.467 331.599 345.393 331.264C345.318 330.93 345.174 330.614 344.97 330.339C344.765 330.064 344.505 329.835 344.206 329.667C342.366 328.719 339.071 330.457 337.76 331.768C337.665 331.871 336.464 333.348 336.18 333.759C336.33 332.369 336.488 330.971 336.701 329.612C336.978 327.765 337.377 325.939 337.894 324.145C338.013 324.192 341.299 325.433 342.887 325.314C344.262 325.219 345.984 324.714 346.782 323.489C346.981 323.21 347.119 322.892 347.188 322.557C347.256 322.221 347.253 321.874 347.178 321.539C347.104 321.205 346.96 320.89 346.755 320.614C346.551 320.339 346.291 320.11 345.992 319.942C344.151 318.994 340.857 320.732 339.545 322.044C339.458 322.13 338.55 323.268 338.123 323.821L338.021 323.766C338.586 321.976 339.314 320.241 340.193 318.583C340.659 317.659 341.165 316.806 341.67 315.984C342.255 316.277 344.957 317.564 346.41 317.651C347.864 317.738 349.57 317.39 350.487 316.261C350.714 316.003 350.884 315.7 350.986 315.372C351.088 315.044 351.12 314.698 351.08 314.357C351.04 314.015 350.928 313.686 350.753 313.391C350.577 313.096 350.341 312.841 350.06 312.643C348.338 311.497 344.87 312.872 343.424 314.025C343.345 314.088 342.634 314.815 342.097 315.344C342.326 314.981 342.563 314.602 342.792 314.254C343.661 312.951 344.53 311.805 345.312 310.802C345.763 310.241 346.181 309.735 346.576 309.269C347.303 309.269 350.226 309.167 351.514 308.566C352.802 307.966 354.184 306.883 354.492 305.454C354.574 305.12 354.585 304.773 354.524 304.434C354.463 304.096 354.332 303.775 354.139 303.49C353.946 303.206 353.696 302.965 353.405 302.783C353.113 302.602 352.786 302.483 352.446 302.436C350.384 302.215 347.943 305.035 347.185 306.725C347.121 306.868 346.395 309.269 346.395 309.269H346.434C346.047 309.712 345.644 310.186 345.194 310.723C344.404 311.71 343.487 312.832 342.595 314.12C341.608 315.499 340.706 316.937 339.893 318.425C338.972 320.081 338.2 321.815 337.586 323.608C337.586 323.608 337.586 323.655 337.586 323.679C337.586 323.071 337.586 321.372 337.586 321.246C337.349 319.413 335.809 316.008 333.778 315.637C333.431 315.559 333.071 315.558 332.723 315.634C332.376 315.71 332.049 315.861 331.765 316.076C331.482 316.291 331.249 316.565 331.082 316.879C330.915 317.194 330.819 317.541 330.8 317.896C330.682 319.358 331.74 320.811 332.767 321.728C333.928 322.77 337.152 323.774 337.404 323.853C336.827 325.693 336.374 327.569 336.046 329.469C335.848 330.576 335.682 331.697 335.532 332.827C335.532 332.306 335.532 331.832 335.532 331.768C335.295 329.936 333.755 326.531 331.724 326.159C331.385 326.106 331.038 326.124 330.706 326.214C330.374 326.303 330.064 326.461 329.797 326.678C329.531 326.895 329.313 327.165 329.157 327.472C329.002 327.779 328.913 328.115 328.896 328.458C328.778 329.92 329.836 331.373 330.863 332.298C331.89 333.222 334.639 334.138 335.358 334.368C335.311 334.802 335.248 335.237 335.2 335.663C334.948 337.741 334.711 339.819 334.41 341.841C334.308 342.56 334.173 343.255 334.047 343.958C334.047 343.492 334.047 343.097 334.047 343.042C333.81 341.209 332.277 337.804 330.239 337.433C329.9 337.379 329.552 337.398 329.22 337.487C328.888 337.576 328.579 337.734 328.312 337.951C328.045 338.168 327.827 338.439 327.672 338.746C327.517 339.052 327.428 339.388 327.411 339.732C327.292 341.185 328.351 342.647 329.378 343.563C330.405 344.48 332.886 345.317 333.747 345.601C333.597 346.312 333.447 347.023 333.273 347.711C333.138 348.177 333.044 348.635 332.886 349.093C332.728 349.551 332.593 350.002 332.443 350.452C332.135 351.305 331.819 352.19 331.495 353.019C331.274 353.588 331.053 354.133 330.832 354.686C330.942 353.975 331.132 352.585 331.132 352.466C331.112 350.84 330.674 349.245 329.86 347.837C329.876 347.658 329.876 347.479 329.86 347.3C329.817 346.959 329.703 346.63 329.525 346.336C329.347 346.042 329.109 345.789 328.826 345.593C328.544 345.397 328.223 345.263 327.886 345.199C327.548 345.135 327.2 345.143 326.866 345.222C324.867 345.751 323.595 349.259 323.5 351.108C323.5 351.218 323.564 352.403 323.627 353.154C323.524 352.719 323.429 352.293 323.319 351.85C323.113 350.965 322.876 350.089 322.624 349.141C322.489 348.69 322.355 348.232 322.213 347.774C322.071 347.316 321.889 346.85 321.731 346.376C321.336 345.293 320.878 344.219 320.404 343.144C321.194 342.955 323.911 342.26 325.017 341.414C326.123 340.569 327.269 339.202 327.261 337.741C327.27 337.397 327.206 337.056 327.074 336.738C326.943 336.421 326.745 336.135 326.496 335.899C326.246 335.662 325.95 335.481 325.626 335.367C325.301 335.253 324.957 335.209 324.614 335.237C322.56 335.458 320.775 338.736 320.396 340.545C320.396 340.656 320.254 341.983 320.198 342.718C319.906 342.07 319.614 341.43 319.298 340.79C318.381 338.934 317.386 337.093 316.414 335.26L315.529 333.562C315.798 333.499 319.076 332.772 320.309 331.792C321.399 330.955 322.56 329.58 322.552 328.119C322.563 327.775 322.5 327.433 322.369 327.115C322.237 326.797 322.04 326.51 321.79 326.274C321.54 326.037 321.243 325.856 320.919 325.743C320.594 325.629 320.249 325.585 319.906 325.614C317.852 325.836 316.067 329.114 315.695 330.923C315.695 331.057 315.49 332.969 315.474 333.459C314.826 332.211 314.186 330.963 313.618 329.707C312.829 328.015 312.154 326.273 311.595 324.493C311.722 324.493 315.142 323.703 316.406 322.715C317.504 321.878 318.666 320.503 318.65 319.042C318.659 318.698 318.595 318.356 318.463 318.038C318.332 317.72 318.135 317.434 317.885 317.197C317.636 316.96 317.339 316.778 317.015 316.663C316.691 316.548 316.346 316.503 316.003 316.529C313.949 316.758 312.164 320.037 311.793 321.846C311.793 321.965 311.635 323.426 311.587 324.113H311.469C310.956 322.305 310.605 320.454 310.418 318.583C310.3 317.556 310.244 316.569 310.221 315.605C310.868 315.526 313.847 315.131 315.079 314.381C316.311 313.63 317.56 312.429 317.71 310.976C317.758 310.634 317.733 310.285 317.636 309.954C317.54 309.622 317.374 309.315 317.15 309.052C316.926 308.789 316.649 308.577 316.337 308.429C316.025 308.281 315.685 308.201 315.34 308.195C313.278 308.195 311.137 311.252 310.6 313.006C310.6 313.109 310.363 314.112 310.221 314.847C310.221 314.412 310.221 313.962 310.221 313.543C310.221 311.963 310.323 310.549 310.418 309.277C310.481 308.558 310.552 307.91 310.623 307.302C311.224 306.891 313.61 305.201 314.352 303.992C315.095 302.783 315.656 301.116 315.142 299.758C315.028 299.433 314.846 299.136 314.609 298.886C314.372 298.637 314.085 298.44 313.766 298.309C313.448 298.178 313.105 298.115 312.761 298.125C312.417 298.135 312.079 298.218 311.769 298.367C309.936 299.323 309.446 303.02 309.754 304.845C309.754 305.003 310.473 307.421 310.505 307.397H310.544C310.465 307.981 310.379 308.606 310.307 309.293C310.181 310.557 310.055 311.995 310.015 313.567C309.958 315.258 309.998 316.952 310.134 318.639C310.282 320.53 310.597 322.404 311.074 324.24V324.303C310.75 323.789 309.786 322.391 309.707 322.296C308.498 320.898 305.338 318.907 303.434 319.713C303.122 319.857 302.842 320.064 302.615 320.322C302.388 320.581 302.217 320.884 302.114 321.212C302.011 321.541 301.979 321.887 302.018 322.229C302.058 322.571 302.169 322.901 302.344 323.197C302.929 324.453 304.619 325.085 305.986 325.283Z" fill="#263238"/>
<path opacity="0.3" d="M304.73 314.76C306.215 315.407 309.849 315.328 309.849 315.328C309.849 315.328 309.059 312.958 308.996 312.808C308.206 311.141 305.678 308.384 303.632 308.661C303.293 308.717 302.969 308.844 302.682 309.034C302.395 309.223 302.15 309.47 301.965 309.76C301.78 310.05 301.657 310.375 301.605 310.715C301.554 311.055 301.574 311.402 301.665 311.734C302.004 313.156 303.466 314.207 304.73 314.76Z" fill="#263238"/>
<path opacity="0.3" d="M341.465 315.558C341.465 315.558 342.129 313.148 342.152 312.99C342.405 311.157 341.82 307.46 339.956 306.575C339.643 306.434 339.303 306.36 338.96 306.359C338.616 306.357 338.276 306.428 337.962 306.567C337.647 306.705 337.365 306.909 337.135 307.163C336.904 307.418 336.729 307.718 336.622 308.045C336.125 309.419 336.757 311.102 337.507 312.263C338.392 313.63 341.465 315.558 341.465 315.558Z" fill="#263238"/>
<path opacity="0.3" d="M305.986 325.283C307.566 325.504 310.766 324.564 311.018 324.493C311.552 326.346 312.209 328.162 312.986 329.928C313.436 330.963 313.918 331.99 314.408 333.009C314.115 332.582 313.847 332.219 313.807 332.148C312.598 330.749 309.438 328.759 307.535 329.564C307.222 329.708 306.943 329.915 306.715 330.174C306.488 330.432 306.317 330.735 306.214 331.064C306.111 331.392 306.079 331.739 306.118 332.08C306.158 332.422 306.269 332.752 306.444 333.048C307.147 334.328 308.814 334.96 310.205 335.158C311.595 335.355 314.368 334.612 315.103 334.407C315.292 334.794 315.482 335.197 315.679 335.576C316.62 337.449 317.56 339.305 318.437 341.162C318.745 341.817 319.021 342.473 319.298 343.121C319.037 342.741 318.816 342.418 318.776 342.37C317.568 340.972 314.408 338.981 312.504 339.795C312.191 339.937 311.912 340.144 311.685 340.402C311.457 340.659 311.287 340.962 311.184 341.29C311.081 341.618 311.048 341.963 311.088 342.305C311.127 342.646 311.238 342.975 311.413 343.271C312.124 344.551 313.783 345.183 315.174 345.388C316.564 345.593 319.069 344.914 319.914 344.669C320.182 345.349 320.451 346.028 320.704 346.699C320.846 347.158 321.02 347.592 321.138 348.058C321.257 348.524 321.399 348.983 321.525 349.441C321.739 350.326 321.96 351.234 322.15 352.103C322.284 352.703 322.394 353.28 322.513 353.857C322.221 353.209 321.604 351.937 321.541 351.842C320.562 350.262 317.741 347.829 315.735 348.343C315.405 348.437 315.099 348.6 314.836 348.82C314.574 349.041 314.361 349.315 314.212 349.624C314.063 349.933 313.98 350.27 313.971 350.612C313.961 350.955 314.023 351.296 314.155 351.613C314.652 352.988 316.225 353.865 317.544 354.276C318.997 354.718 322.213 354.276 322.616 354.276C322.805 355.231 322.987 356.172 323.137 357.056C323.469 358.905 323.714 360.58 323.927 362.01H325.27C325.041 360.524 324.741 358.779 324.354 356.835C324.164 355.856 323.935 354.813 323.698 353.746C324.666 353.359 325.61 352.916 326.526 352.419C327.585 353.565 330.294 354.908 330.65 355.081C330.279 355.99 329.915 356.867 329.552 357.688C328.849 359.316 328.177 360.761 327.577 362.01H329.038C329.544 360.864 330.105 359.584 330.682 358.17C331.061 357.246 331.472 356.258 331.835 355.231C332.222 355.318 335.406 355.966 336.891 355.626C338.242 355.326 339.869 354.56 340.47 353.256C340.623 352.948 340.709 352.611 340.723 352.267C340.737 351.923 340.679 351.58 340.551 351.26C340.424 350.94 340.23 350.651 339.983 350.411C339.737 350.171 339.442 349.986 339.119 349.867C337.16 349.212 334.165 351.447 333.067 352.925C333.004 353.012 332.404 354.046 332.04 354.702C332.198 354.283 332.356 353.912 332.506 353.446C332.822 352.593 333.107 351.732 333.423 350.807C333.557 350.357 333.691 349.899 333.834 349.433C333.976 348.967 334.079 348.485 334.197 348.003C334.466 346.881 334.679 345.736 334.876 344.574C335.619 344.843 338.289 345.775 339.672 345.68C341.054 345.586 342.776 345.072 343.574 343.848C343.774 343.569 343.912 343.251 343.98 342.915C344.049 342.579 344.045 342.232 343.971 341.898C343.896 341.563 343.752 341.248 343.548 340.973C343.343 340.697 343.083 340.468 342.784 340.3C340.944 339.352 337.649 341.09 336.338 342.402C336.259 342.489 335.422 343.524 334.971 344.108C335.082 343.405 335.2 342.71 335.287 341.999C335.54 339.945 335.738 337.859 335.935 335.782C335.998 335.15 336.069 334.518 336.133 333.878C336.401 333.98 339.553 335.15 341.102 335.039C342.476 334.944 344.198 334.439 344.996 333.214C345.196 332.935 345.334 332.617 345.402 332.281C345.471 331.945 345.467 331.599 345.393 331.264C345.318 330.93 345.174 330.614 344.97 330.339C344.765 330.064 344.505 329.835 344.206 329.667C342.366 328.719 339.071 330.457 337.76 331.768C337.665 331.871 336.464 333.348 336.18 333.759C336.33 332.369 336.488 330.971 336.701 329.612C336.978 327.765 337.377 325.939 337.894 324.145C338.013 324.192 341.299 325.433 342.887 325.314C344.262 325.219 345.984 324.714 346.782 323.489C346.981 323.21 347.119 322.892 347.188 322.557C347.256 322.221 347.253 321.874 347.178 321.539C347.104 321.205 346.96 320.89 346.755 320.614C346.551 320.339 346.291 320.11 345.992 319.942C344.151 318.994 340.857 320.732 339.545 322.044C339.458 322.13 338.55 323.268 338.123 323.821L338.021 323.766C338.586 321.976 339.314 320.241 340.193 318.583C340.659 317.659 341.165 316.806 341.67 315.984C342.255 316.277 344.957 317.564 346.41 317.651C347.864 317.738 349.57 317.39 350.487 316.261C350.714 316.003 350.884 315.7 350.986 315.372C351.088 315.044 351.12 314.698 351.08 314.357C351.04 314.015 350.928 313.686 350.753 313.391C350.577 313.096 350.341 312.841 350.06 312.643C348.338 311.497 344.87 312.872 343.424 314.025C343.345 314.088 342.634 314.815 342.097 315.344C342.326 314.981 342.563 314.602 342.792 314.254C343.661 312.951 344.53 311.805 345.312 310.802C345.763 310.241 346.181 309.735 346.576 309.269C347.303 309.269 350.226 309.167 351.514 308.566C352.802 307.966 354.184 306.883 354.492 305.454C354.574 305.12 354.585 304.773 354.524 304.434C354.463 304.096 354.332 303.775 354.139 303.49C353.946 303.206 353.696 302.965 353.405 302.783C353.113 302.602 352.786 302.483 352.446 302.436C350.384 302.215 347.943 305.035 347.185 306.725C347.121 306.868 346.395 309.269 346.395 309.269H346.434C346.047 309.712 345.644 310.186 345.194 310.723C344.404 311.71 343.487 312.832 342.595 314.12C341.608 315.499 340.706 316.937 339.893 318.425C338.972 320.081 338.2 321.815 337.586 323.608C337.586 323.608 337.586 323.655 337.586 323.679C337.586 323.071 337.586 321.372 337.586 321.246C337.349 319.413 335.809 316.008 333.778 315.637C333.431 315.559 333.071 315.558 332.723 315.634C332.376 315.71 332.049 315.861 331.765 316.076C331.482 316.291 331.249 316.565 331.082 316.879C330.915 317.194 330.819 317.541 330.8 317.896C330.682 319.358 331.74 320.811 332.767 321.728C333.928 322.77 337.152 323.774 337.404 323.853C336.827 325.693 336.374 327.569 336.046 329.469C335.848 330.576 335.682 331.697 335.532 332.827C335.532 332.306 335.532 331.832 335.532 331.768C335.295 329.936 333.755 326.531 331.724 326.159C331.385 326.106 331.038 326.124 330.706 326.214C330.374 326.303 330.064 326.461 329.797 326.678C329.531 326.895 329.313 327.165 329.157 327.472C329.002 327.779 328.913 328.115 328.896 328.458C328.778 329.92 329.836 331.373 330.863 332.298C331.89 333.222 334.639 334.138 335.358 334.368C335.311 334.802 335.248 335.237 335.2 335.663C334.948 337.741 334.711 339.819 334.41 341.841C334.308 342.56 334.173 343.255 334.047 343.958C334.047 343.492 334.047 343.097 334.047 343.042C333.81 341.209 332.277 337.804 330.239 337.433C329.9 337.379 329.552 337.398 329.22 337.487C328.888 337.576 328.579 337.734 328.312 337.951C328.045 338.168 327.827 338.439 327.672 338.746C327.517 339.052 327.428 339.388 327.411 339.732C327.292 341.185 328.351 342.647 329.378 343.563C330.405 344.48 332.886 345.317 333.747 345.601C333.597 346.312 333.447 347.023 333.273 347.711C333.138 348.177 333.044 348.635 332.886 349.093C332.728 349.551 332.593 350.002 332.443 350.452C332.135 351.305 331.819 352.19 331.495 353.019C331.274 353.588 331.053 354.133 330.832 354.686C330.942 353.975 331.132 352.585 331.132 352.466C331.112 350.84 330.674 349.245 329.86 347.837C329.876 347.658 329.876 347.479 329.86 347.3C329.817 346.959 329.703 346.63 329.525 346.336C329.347 346.042 329.109 345.789 328.826 345.593C328.544 345.397 328.223 345.263 327.886 345.199C327.548 345.135 327.2 345.143 326.866 345.222C324.867 345.751 323.595 349.259 323.5 351.108C323.5 351.218 323.564 352.403 323.627 353.154C323.524 352.719 323.429 352.293 323.319 351.85C323.113 350.965 322.876 350.089 322.624 349.141C322.489 348.69 322.355 348.232 322.213 347.774C322.071 347.316 321.889 346.85 321.731 346.376C321.336 345.293 320.878 344.219 320.404 343.144C321.194 342.955 323.911 342.26 325.017 341.414C326.123 340.569 327.269 339.202 327.261 337.741C327.27 337.397 327.206 337.056 327.074 336.738C326.943 336.421 326.745 336.135 326.496 335.899C326.246 335.662 325.95 335.481 325.626 335.367C325.301 335.253 324.957 335.209 324.614 335.237C322.56 335.458 320.775 338.736 320.396 340.545C320.396 340.656 320.254 341.983 320.198 342.718C319.906 342.07 319.614 341.43 319.298 340.79C318.381 338.934 317.386 337.093 316.414 335.26L315.529 333.562C315.798 333.499 319.076 332.772 320.309 331.792C321.399 330.955 322.56 329.58 322.552 328.119C322.563 327.775 322.5 327.433 322.369 327.115C322.237 326.797 322.04 326.51 321.79 326.274C321.54 326.037 321.243 325.856 320.919 325.743C320.594 325.629 320.249 325.585 319.906 325.614C317.852 325.836 316.067 329.114 315.695 330.923C315.695 331.057 315.49 332.969 315.474 333.459C314.826 332.211 314.186 330.963 313.618 329.707C312.829 328.015 312.154 326.273 311.595 324.493C311.722 324.493 315.142 323.703 316.406 322.715C317.504 321.878 318.666 320.503 318.65 319.042C318.659 318.698 318.595 318.356 318.463 318.038C318.332 317.72 318.135 317.434 317.885 317.197C317.636 316.96 317.339 316.778 317.015 316.663C316.691 316.548 316.346 316.503 316.003 316.529C313.949 316.758 312.164 320.037 311.793 321.846C311.793 321.965 311.635 323.426 311.587 324.113H311.469C310.956 322.305 310.605 320.454 310.418 318.583C310.3 317.556 310.244 316.569 310.221 315.605C310.868 315.526 313.847 315.131 315.079 314.381C316.311 313.63 317.56 312.429 317.71 310.976C317.758 310.634 317.733 310.285 317.636 309.954C317.54 309.622 317.374 309.315 317.15 309.052C316.926 308.789 316.649 308.577 316.337 308.429C316.025 308.281 315.685 308.201 315.34 308.195C313.278 308.195 311.137 311.252 310.6 313.006C310.6 313.109 310.363 314.112 310.221 314.847C310.221 314.412 310.221 313.962 310.221 313.543C310.221 311.963 310.323 310.549 310.418 309.277C310.481 308.558 310.552 307.91 310.623 307.302C311.224 306.891 313.61 305.201 314.352 303.992C315.095 302.783 315.656 301.116 315.142 299.758C315.028 299.433 314.846 299.136 314.609 298.886C314.372 298.637 314.085 298.44 313.766 298.309C313.448 298.178 313.105 298.115 312.761 298.125C312.417 298.135 312.079 298.218 311.769 298.367C309.936 299.323 309.446 303.02 309.754 304.845C309.754 305.003 310.473 307.421 310.505 307.397H310.544C310.465 307.981 310.379 308.606 310.307 309.293C310.181 310.557 310.055 311.995 310.015 313.567C309.958 315.258 309.998 316.952 310.134 318.639C310.282 320.53 310.597 322.404 311.074 324.24V324.303C310.75 323.789 309.786 322.391 309.707 322.296C308.498 320.898 305.338 318.907 303.434 319.713C303.122 319.857 302.842 320.064 302.615 320.322C302.388 320.581 302.217 320.884 302.114 321.212C302.011 321.541 301.979 321.887 302.018 322.229C302.058 322.571 302.169 322.901 302.344 323.197C302.929 324.453 304.619 325.085 305.986 325.283Z" fill="#263238"/>
<path d="M89.5419 315.558C89.5419 315.558 90.2055 313.148 90.2292 312.99C90.482 311.157 89.8974 307.46 88.033 306.575C87.7197 306.434 87.3803 306.36 87.0367 306.359C86.6931 306.357 86.353 306.428 86.0385 306.567C85.7241 306.705 85.4424 306.909 85.2116 307.163C84.9809 307.418 84.8063 307.718 84.6992 308.045C84.2015 309.419 84.8335 311.102 85.584 312.263C86.4688 313.63 89.5419 315.558 89.5419 315.558Z" fill="#263238"/>
<path d="M52.8069 314.76C54.2921 315.407 57.9182 315.328 57.9261 315.328C57.934 315.328 57.1361 312.958 57.0729 312.808C56.2829 311.141 53.7549 308.384 51.7088 308.661C51.3695 308.717 51.0458 308.844 50.7587 309.034C50.4715 309.223 50.2274 309.47 50.0419 309.76C49.8565 310.05 49.734 310.375 49.6823 310.715C49.6305 311.055 49.6508 311.402 49.7417 311.734C50.0814 313.156 51.5429 314.207 52.8069 314.76Z" fill="#263238"/>
<path d="M54.0551 325.283C55.6351 325.504 58.8425 324.564 59.0953 324.493C59.629 326.346 60.2862 328.162 61.0624 329.928C61.5101 330.981 61.9841 332.008 62.4844 333.009C62.1921 332.582 61.9235 332.219 61.8761 332.148C60.6674 330.749 57.5153 328.759 55.6114 329.564C55.2986 329.708 55.0194 329.915 54.792 330.174C54.5645 330.432 54.3939 330.735 54.2911 331.064C54.1883 331.392 54.1557 331.739 54.1953 332.08C54.235 332.422 54.346 332.752 54.5212 333.048C55.2243 334.328 56.8912 334.96 58.2737 335.158C59.6562 335.355 62.4449 334.612 63.1796 334.407C63.3692 334.794 63.5588 335.197 63.7563 335.576C64.6964 337.449 65.6365 339.305 66.5055 341.162C66.8136 341.817 67.098 342.473 67.3745 343.121C67.1138 342.741 66.8847 342.418 66.8452 342.37C65.6365 340.972 62.4844 338.981 60.5805 339.795C60.2679 339.937 59.9889 340.144 59.7615 340.402C59.5341 340.659 59.3635 340.962 59.2606 341.29C59.1578 341.618 59.1251 341.963 59.1647 342.305C59.2043 342.646 59.3152 342.975 59.4903 343.271C60.1934 344.551 61.8603 345.183 63.2428 345.388C64.6253 345.593 67.1375 344.914 67.9828 344.669C68.2514 345.349 68.52 346.028 68.7728 346.699C68.915 347.158 69.0888 347.592 69.2073 348.058C69.3258 348.524 69.468 348.982 69.5944 349.441C69.8077 350.325 70.0289 351.234 70.2185 352.103C70.3528 352.703 70.4634 353.28 70.5819 353.857C70.2817 353.209 69.6734 351.937 69.6102 351.842C68.6306 350.262 65.8103 347.829 63.8037 348.343C63.4753 348.439 63.1707 348.603 62.9097 348.824C62.6486 349.046 62.4368 349.319 62.2879 349.627C62.139 349.935 62.0564 350.271 62.0454 350.613C62.0343 350.956 62.0951 351.296 62.2237 351.613C62.7293 352.988 64.3014 353.865 65.6207 354.276C67.0743 354.718 70.2896 354.276 70.6925 354.276C70.8821 355.231 71.0638 356.172 71.2139 357.056C71.5378 358.905 71.7906 360.58 72.0039 362.01H73.3548C73.1178 360.524 72.8255 358.779 72.4384 356.835C72.2409 355.856 72.0197 354.813 71.7827 353.746C72.7506 353.359 73.6949 352.916 74.6109 352.419C75.6695 353.565 78.3792 354.908 78.7347 355.081C78.3634 355.99 77.9921 356.867 77.6366 357.688C76.9335 359.316 76.262 360.761 75.6616 362.01H77.1231C77.6287 360.864 78.1896 359.584 78.7663 358.17C79.1455 357.246 79.5563 356.258 79.9197 355.231C80.3068 355.318 83.4905 355.966 84.9757 355.626C86.3187 355.326 87.954 354.56 88.5544 353.256C88.7076 352.948 88.794 352.611 88.8081 352.267C88.8221 351.923 88.7635 351.58 88.636 351.26C88.5086 350.94 88.3151 350.651 88.0683 350.411C87.8214 350.171 87.5268 349.986 87.2035 349.867C85.2443 349.212 82.2502 351.447 81.1521 352.925C81.0889 353.012 80.4885 354.046 80.1251 354.702C80.2831 354.283 80.4411 353.912 80.5912 353.446C80.9072 352.593 81.1916 351.732 81.5076 350.807C81.6419 350.357 81.7762 349.899 81.9184 349.433C82.0606 348.967 82.1554 348.485 82.2818 348.003C82.5504 346.881 82.7637 345.736 82.9612 344.574C83.7038 344.843 86.374 345.775 87.7565 345.68C89.139 345.586 90.8612 345.072 91.6591 343.848C91.8584 343.569 91.9967 343.251 92.065 342.915C92.1334 342.579 92.1302 342.232 92.0556 341.898C91.9811 341.563 91.8369 341.248 91.6325 340.973C91.4281 340.697 91.1679 340.468 90.8691 340.3C89.0284 339.352 85.7341 341.09 84.4227 342.402C84.3437 342.489 83.5063 343.524 83.056 344.108C83.1666 343.405 83.2851 342.71 83.372 341.999C83.6248 339.945 83.8144 337.859 84.0198 335.782C84.083 335.15 84.1541 334.518 84.2173 333.878C84.4859 333.98 87.6301 335.15 89.1785 335.039C90.561 334.944 92.2832 334.439 93.0811 333.214C93.2804 332.935 93.4187 332.617 93.4871 332.281C93.5554 331.945 93.5522 331.599 93.4776 331.264C93.4031 330.93 93.2589 330.614 93.0545 330.339C92.8501 330.064 92.5899 329.835 92.2911 329.667C90.4504 328.719 87.1561 330.457 85.8447 331.768C85.7499 331.871 84.5491 333.348 84.2647 333.759C84.4069 332.369 84.5728 330.971 84.7861 329.612C85.0629 327.765 85.4614 325.939 85.979 324.145C86.0975 324.192 89.3839 325.433 90.9718 325.314C92.3464 325.219 94.0686 324.714 94.8665 323.489C95.0658 323.21 95.2041 322.892 95.2724 322.557C95.3408 322.221 95.3376 321.874 95.263 321.539C95.1885 321.205 95.0443 320.89 94.8399 320.614C94.6355 320.339 94.3753 320.11 94.0765 319.942C92.2358 318.994 88.9415 320.732 87.6301 322.044C87.5432 322.13 86.6347 323.268 86.2081 323.821L86.1054 323.766C86.6712 321.976 87.3984 320.241 88.2779 318.583C88.744 317.659 89.2496 316.806 89.7552 315.984C90.3398 316.277 93.0416 317.564 94.4952 317.651C95.9488 317.738 97.6552 317.39 98.5716 316.261C98.7985 316.003 98.9687 315.7 99.0709 315.372C99.1731 315.044 99.2051 314.698 99.1649 314.357C99.1246 314.015 99.013 313.686 98.8373 313.391C98.6616 313.096 98.4257 312.841 98.145 312.643C96.4228 311.497 92.9547 312.872 91.509 314.025C91.43 314.088 90.719 314.815 90.1739 315.344L90.877 314.254C91.746 312.951 92.615 311.805 93.3971 310.802C93.8474 310.241 94.2661 309.735 94.6611 309.269C95.3879 309.269 98.3109 309.167 99.5907 308.566C100.871 307.966 102.269 306.883 102.577 305.454C102.659 305.119 102.669 304.771 102.608 304.433C102.547 304.094 102.415 303.772 102.221 303.488C102.028 303.203 101.776 302.962 101.484 302.781C101.191 302.6 100.864 302.482 100.523 302.436C98.4689 302.214 96.0278 305.035 95.2694 306.725C95.2062 306.868 94.4794 309.269 94.4794 309.269C94.0923 309.712 93.6894 310.186 93.2391 310.723C92.4491 311.71 91.5327 312.832 90.6321 314.12C89.6513 315.501 88.7518 316.939 87.9382 318.425C87.0175 320.081 86.2455 321.815 85.6314 323.608C85.6314 323.608 85.6314 323.655 85.6314 323.679C85.6314 323.071 85.6314 321.372 85.6314 321.246C85.3944 319.413 83.8539 316.008 81.8236 315.637C81.484 315.583 81.1369 315.601 80.805 315.691C80.473 315.78 80.1635 315.938 79.8967 316.155C79.63 316.372 79.4118 316.643 79.2565 316.949C79.1012 317.256 79.0123 317.592 78.9954 317.936C78.8769 319.397 79.9355 320.851 80.9625 321.767C82.1238 322.81 85.347 323.813 85.5998 323.892C85.0192 325.731 84.5652 327.608 84.241 329.509C84.0435 330.615 83.8776 331.737 83.7275 332.867C83.7275 332.345 83.7275 331.871 83.7275 331.808C83.4905 329.975 81.9579 326.57 79.9197 326.199C79.5807 326.146 79.2345 326.166 78.9034 326.256C78.5724 326.346 78.264 326.504 77.9981 326.721C77.7322 326.938 77.5148 327.208 77.36 327.514C77.2052 327.82 77.1164 328.155 77.0994 328.498C76.9809 329.959 78.0316 331.413 79.0665 332.337C80.1014 333.261 82.8348 334.178 83.5616 334.407C83.5142 334.841 83.451 335.276 83.4036 335.703C83.1508 337.78 82.9138 339.858 82.6136 341.88C82.503 342.599 82.3766 343.295 82.2502 343.998C82.2502 343.532 82.2502 343.137 82.2502 343.081C82.0132 341.248 80.4727 337.843 78.4424 337.472C78.0954 337.39 77.7346 337.384 77.3852 337.456C77.0358 337.527 76.7063 337.674 76.4196 337.886C76.133 338.099 75.8961 338.371 75.7256 338.684C75.5551 338.997 75.4551 339.344 75.4325 339.7C75.314 341.154 76.3726 342.615 77.3996 343.532C78.4266 344.448 80.9072 345.285 81.7683 345.57C81.6182 346.281 81.4681 346.992 81.2943 347.679C81.16 348.145 81.0652 348.603 80.9072 349.062C80.7492 349.52 80.607 349.97 80.4648 350.42C80.1567 351.274 79.8407 352.158 79.5168 352.988C79.2956 353.557 79.0744 354.102 78.8532 354.655C78.9638 353.944 79.1534 352.553 79.1534 352.435C79.1337 350.808 78.6957 349.214 77.8815 347.805C77.8975 347.627 77.8975 347.447 77.8815 347.268C77.8346 346.925 77.7156 346.597 77.5324 346.303C77.3491 346.01 77.1058 345.759 76.8185 345.566C76.5311 345.374 76.2063 345.244 75.8652 345.186C75.5242 345.128 75.1748 345.143 74.84 345.23C72.8334 345.759 71.5694 349.267 71.4746 351.116C71.4746 351.226 71.5378 352.411 71.601 353.162C71.4983 352.727 71.4035 352.301 71.2929 351.858C71.0875 350.973 70.8505 350.096 70.5977 349.148C70.4634 348.698 70.3291 348.24 70.1869 347.782C70.0447 347.324 69.863 346.857 69.705 346.383C69.31 345.301 68.8518 344.227 68.3699 343.152C69.1599 342.963 71.8854 342.267 72.9835 341.422C74.0816 340.577 75.2429 339.21 75.235 337.749C75.2439 337.405 75.1804 337.064 75.0486 336.746C74.9168 336.429 74.7197 336.143 74.4701 335.907C74.2205 335.67 73.9239 335.489 73.5998 335.375C73.2756 335.261 72.931 335.217 72.5885 335.244C70.5266 335.466 68.7412 338.744 68.3699 340.553C68.3699 340.664 68.2277 341.991 68.1724 342.726C67.8801 342.078 67.5878 341.438 67.2718 340.798C66.3475 338.942 65.36 337.101 64.3883 335.268L63.4956 333.57C63.7721 333.506 67.0506 332.78 68.283 331.8C69.3732 330.963 70.5345 329.588 70.5266 328.127C70.5367 327.783 70.4741 327.44 70.3427 327.122C70.2114 326.805 70.0143 326.518 69.7644 326.281C69.5145 326.045 69.2174 325.864 68.8927 325.75C68.568 325.637 68.2229 325.593 67.8801 325.622C65.8261 325.843 64.0407 329.122 63.6694 330.931C63.6694 331.065 63.464 332.977 63.4482 333.467C62.8004 332.219 62.1605 330.97 61.5838 329.714C60.8017 328.021 60.1288 326.28 59.5693 324.5C59.6957 324.5 63.1164 323.71 64.3804 322.723C65.4706 321.886 66.6319 320.511 66.624 319.049C66.6328 318.706 66.5693 318.364 66.4375 318.046C66.3058 317.728 66.1089 317.442 65.8594 317.205C65.6099 316.968 65.3135 316.786 64.9893 316.671C64.6652 316.556 64.3204 316.511 63.9775 316.537C61.9235 316.766 60.1381 320.045 59.7668 321.854C59.7668 321.972 59.6088 323.434 59.5614 324.121H59.4429C58.9266 322.313 58.575 320.462 58.3922 318.591C58.2737 317.564 58.2184 316.577 58.1947 315.613C58.8425 315.534 61.8208 315.139 63.0532 314.388C64.2856 313.638 65.5338 312.437 65.6839 310.984C65.732 310.642 65.707 310.293 65.6106 309.962C65.5142 309.63 65.3485 309.323 65.1245 309.06C64.9005 308.797 64.6233 308.585 64.3112 308.437C63.9991 308.289 63.6592 308.209 63.3139 308.203C61.2441 308.203 59.1111 311.26 58.5739 313.014C58.5739 313.117 58.3369 314.12 58.1947 314.854C58.1947 314.42 58.1947 313.97 58.1947 313.551C58.1947 311.971 58.2895 310.557 58.3922 309.285C58.4554 308.566 58.5186 307.918 58.5976 307.31C59.1901 306.899 61.5838 305.209 62.3264 304C63.069 302.791 63.6299 301.124 63.1164 299.766C63.0007 299.442 62.8184 299.146 62.5811 298.897C62.3438 298.648 62.0569 298.451 61.7389 298.32C61.4209 298.189 61.079 298.126 60.7352 298.136C60.3914 298.145 60.0534 298.227 59.7431 298.375C57.9103 299.331 57.4205 303.028 57.7286 304.853C57.7286 305.011 58.4475 307.429 58.4791 307.405H58.5186C58.4317 307.989 58.3527 308.613 58.2816 309.301C58.1552 310.565 58.0288 312.003 57.9893 313.575C57.9325 315.266 57.9721 316.96 58.1078 318.647C58.252 320.527 58.564 322.391 59.04 324.216V324.279C58.7161 323.766 57.7523 322.367 57.6654 322.273C56.4567 320.874 53.3046 318.884 51.4007 319.689C51.0879 319.833 50.8087 320.04 50.5813 320.299C50.3538 320.557 50.1832 320.86 50.0804 321.189C49.9776 321.517 49.945 321.864 49.9846 322.205C50.0243 322.547 50.1353 322.877 50.3105 323.173C51.0057 324.453 52.72 325.085 54.0551 325.283Z" fill="#263238"/>
<path opacity="0.3" d="M52.8069 314.76C54.2921 315.407 57.9182 315.328 57.9261 315.328C57.934 315.328 57.1361 312.958 57.0729 312.808C56.2829 311.141 53.7549 308.384 51.7088 308.661C51.3695 308.717 51.0458 308.844 50.7587 309.034C50.4715 309.223 50.2274 309.47 50.0419 309.76C49.8565 310.05 49.734 310.375 49.6823 310.715C49.6305 311.055 49.6508 311.402 49.7417 311.734C50.0814 313.156 51.5429 314.207 52.8069 314.76Z" fill="#263238"/>
<path opacity="0.3" d="M89.5419 315.558C89.5419 315.558 90.2055 313.148 90.2292 312.99C90.482 311.157 89.8974 307.46 88.033 306.575C87.7197 306.434 87.3803 306.36 87.0367 306.359C86.6931 306.357 86.353 306.428 86.0385 306.567C85.7241 306.705 85.4424 306.909 85.2116 307.163C84.9809 307.418 84.8063 307.718 84.6992 308.045C84.2015 309.419 84.8335 311.102 85.584 312.263C86.4688 313.63 89.5419 315.558 89.5419 315.558Z" fill="#263238"/>
<path opacity="0.3" d="M54.0551 325.283C55.6351 325.504 58.8425 324.564 59.0953 324.493C59.629 326.346 60.2862 328.162 61.0624 329.928C61.5101 330.981 61.9841 332.008 62.4844 333.009C62.1921 332.582 61.9235 332.219 61.8761 332.148C60.6674 330.749 57.5153 328.759 55.6114 329.564C55.2986 329.708 55.0194 329.915 54.792 330.174C54.5645 330.432 54.3939 330.735 54.2911 331.064C54.1883 331.392 54.1557 331.739 54.1953 332.08C54.235 332.422 54.346 332.752 54.5212 333.048C55.2243 334.328 56.8912 334.96 58.2737 335.158C59.6562 335.355 62.4449 334.612 63.1796 334.407C63.3692 334.794 63.5588 335.197 63.7563 335.576C64.6964 337.449 65.6365 339.305 66.5055 341.162C66.8136 341.817 67.098 342.473 67.3745 343.121C67.1138 342.741 66.8847 342.418 66.8452 342.37C65.6365 340.972 62.4844 338.981 60.5805 339.795C60.2679 339.937 59.9889 340.144 59.7615 340.402C59.5341 340.659 59.3635 340.962 59.2606 341.29C59.1578 341.618 59.1251 341.963 59.1647 342.305C59.2043 342.646 59.3152 342.975 59.4903 343.271C60.1934 344.551 61.8603 345.183 63.2428 345.388C64.6253 345.593 67.1375 344.914 67.9828 344.669C68.2514 345.349 68.52 346.028 68.7728 346.699C68.915 347.158 69.0888 347.592 69.2073 348.058C69.3258 348.524 69.468 348.982 69.5944 349.441C69.8077 350.325 70.0289 351.234 70.2185 352.103C70.3528 352.703 70.4634 353.28 70.5819 353.857C70.2817 353.209 69.6734 351.937 69.6102 351.842C68.6306 350.262 65.8103 347.829 63.8037 348.343C63.4753 348.439 63.1707 348.603 62.9097 348.824C62.6486 349.046 62.4368 349.319 62.2879 349.627C62.139 349.935 62.0564 350.271 62.0454 350.613C62.0343 350.956 62.0951 351.296 62.2237 351.613C62.7293 352.988 64.3014 353.865 65.6207 354.276C67.0743 354.718 70.2896 354.276 70.6925 354.276C70.8821 355.231 71.0638 356.172 71.2139 357.056C71.5378 358.905 71.7906 360.58 72.0039 362.01H73.3548C73.1178 360.524 72.8255 358.779 72.4384 356.835C72.2409 355.856 72.0197 354.813 71.7827 353.746C72.7506 353.359 73.6949 352.916 74.6109 352.419C75.6695 353.565 78.3792 354.908 78.7347 355.081C78.3634 355.99 77.9921 356.867 77.6366 357.688C76.9335 359.316 76.262 360.761 75.6616 362.01H77.1231C77.6287 360.864 78.1896 359.584 78.7663 358.17C79.1455 357.246 79.5563 356.258 79.9197 355.231C80.3068 355.318 83.4905 355.966 84.9757 355.626C86.3187 355.326 87.954 354.56 88.5544 353.256C88.7076 352.948 88.794 352.611 88.8081 352.267C88.8221 351.923 88.7635 351.58 88.636 351.26C88.5086 350.94 88.3151 350.651 88.0683 350.411C87.8214 350.171 87.5268 349.986 87.2035 349.867C85.2443 349.212 82.2502 351.447 81.1521 352.925C81.0889 353.012 80.4885 354.046 80.1251 354.702C80.2831 354.283 80.4411 353.912 80.5912 353.446C80.9072 352.593 81.1916 351.732 81.5076 350.807C81.6419 350.357 81.7762 349.899 81.9184 349.433C82.0606 348.967 82.1554 348.485 82.2818 348.003C82.5504 346.881 82.7637 345.736 82.9612 344.574C83.7038 344.843 86.374 345.775 87.7565 345.68C89.139 345.586 90.8612 345.072 91.6591 343.848C91.8584 343.569 91.9967 343.251 92.065 342.915C92.1334 342.579 92.1302 342.232 92.0556 341.898C91.9811 341.563 91.8369 341.248 91.6325 340.973C91.4281 340.697 91.1679 340.468 90.8691 340.3C89.0284 339.352 85.7341 341.09 84.4227 342.402C84.3437 342.489 83.5063 343.524 83.056 344.108C83.1666 343.405 83.2851 342.71 83.372 341.999C83.6248 339.945 83.8144 337.859 84.0198 335.782C84.083 335.15 84.1541 334.518 84.2173 333.878C84.4859 333.98 87.6301 335.15 89.1785 335.039C90.561 334.944 92.2832 334.439 93.0811 333.214C93.2804 332.935 93.4187 332.617 93.4871 332.281C93.5554 331.945 93.5522 331.599 93.4776 331.264C93.4031 330.93 93.2589 330.614 93.0545 330.339C92.8501 330.064 92.5899 329.835 92.2911 329.667C90.4504 328.719 87.1561 330.457 85.8447 331.768C85.7499 331.871 84.5491 333.348 84.2647 333.759C84.4069 332.369 84.5728 330.971 84.7861 329.612C85.0629 327.765 85.4614 325.939 85.979 324.145C86.0975 324.192 89.3839 325.433 90.9718 325.314C92.3464 325.219 94.0686 324.714 94.8665 323.489C95.0658 323.21 95.2041 322.892 95.2724 322.557C95.3408 322.221 95.3376 321.874 95.263 321.539C95.1885 321.205 95.0443 320.89 94.8399 320.614C94.6355 320.339 94.3753 320.11 94.0765 319.942C92.2358 318.994 88.9415 320.732 87.6301 322.044C87.5432 322.13 86.6347 323.268 86.2081 323.821L86.1054 323.766C86.6712 321.976 87.3984 320.241 88.2779 318.583C88.744 317.659 89.2496 316.806 89.7552 315.984C90.3398 316.277 93.0416 317.564 94.4952 317.651C95.9488 317.738 97.6552 317.39 98.5716 316.261C98.7985 316.003 98.9687 315.7 99.0709 315.372C99.1731 315.044 99.2051 314.698 99.1649 314.357C99.1246 314.015 99.013 313.686 98.8373 313.391C98.6616 313.096 98.4257 312.841 98.145 312.643C96.4228 311.497 92.9547 312.872 91.509 314.025C91.43 314.088 90.719 314.815 90.1739 315.344L90.877 314.254C91.746 312.951 92.615 311.805 93.3971 310.802C93.8474 310.241 94.2661 309.735 94.6611 309.269C95.3879 309.269 98.3109 309.167 99.5907 308.566C100.871 307.966 102.269 306.883 102.577 305.454C102.659 305.119 102.669 304.771 102.608 304.433C102.547 304.094 102.415 303.772 102.221 303.488C102.028 303.203 101.776 302.962 101.484 302.781C101.191 302.6 100.864 302.482 100.523 302.436C98.4689 302.214 96.0278 305.035 95.2694 306.725C95.2062 306.868 94.4794 309.269 94.4794 309.269C94.0923 309.712 93.6894 310.186 93.2391 310.723C92.4491 311.71 91.5327 312.832 90.6321 314.12C89.6513 315.501 88.7518 316.939 87.9382 318.425C87.0175 320.081 86.2455 321.815 85.6314 323.608C85.6314 323.608 85.6314 323.655 85.6314 323.679C85.6314 323.071 85.6314 321.372 85.6314 321.246C85.3944 319.413 83.8539 316.008 81.8236 315.637C81.484 315.583 81.1369 315.601 80.805 315.691C80.473 315.78 80.1635 315.938 79.8967 316.155C79.63 316.372 79.4118 316.643 79.2565 316.949C79.1012 317.256 79.0123 317.592 78.9954 317.936C78.8769 319.397 79.9355 320.851 80.9625 321.767C82.1238 322.81 85.347 323.813 85.5998 323.892C85.0192 325.731 84.5652 327.608 84.241 329.509C84.0435 330.615 83.8776 331.737 83.7275 332.867C83.7275 332.345 83.7275 331.871 83.7275 331.808C83.4905 329.975 81.9579 326.57 79.9197 326.199C79.5807 326.146 79.2345 326.166 78.9034 326.256C78.5724 326.346 78.264 326.504 77.9981 326.721C77.7322 326.938 77.5148 327.208 77.36 327.514C77.2052 327.82 77.1164 328.155 77.0994 328.498C76.9809 329.959 78.0316 331.413 79.0665 332.337C80.1014 333.261 82.8348 334.178 83.5616 334.407C83.5142 334.841 83.451 335.276 83.4036 335.703C83.1508 337.78 82.9138 339.858 82.6136 341.88C82.503 342.599 82.3766 343.295 82.2502 343.998C82.2502 343.532 82.2502 343.137 82.2502 343.081C82.0132 341.248 80.4727 337.843 78.4424 337.472C78.0954 337.39 77.7346 337.384 77.3852 337.456C77.0358 337.527 76.7063 337.674 76.4196 337.886C76.133 338.099 75.8961 338.371 75.7256 338.684C75.5551 338.997 75.4551 339.344 75.4325 339.7C75.314 341.154 76.3726 342.615 77.3996 343.532C78.4266 344.448 80.9072 345.285 81.7683 345.57C81.6182 346.281 81.4681 346.992 81.2943 347.679C81.16 348.145 81.0652 348.603 80.9072 349.062C80.7492 349.52 80.607 349.97 80.4648 350.42C80.1567 351.274 79.8407 352.158 79.5168 352.988C79.2956 353.557 79.0744 354.102 78.8532 354.655C78.9638 353.944 79.1534 352.553 79.1534 352.435C79.1337 350.808 78.6957 349.214 77.8815 347.805C77.8975 347.627 77.8975 347.447 77.8815 347.268C77.8346 346.925 77.7156 346.597 77.5324 346.303C77.3491 346.01 77.1058 345.759 76.8185 345.566C76.5311 345.374 76.2063 345.244 75.8652 345.186C75.5242 345.128 75.1748 345.143 74.84 345.23C72.8334 345.759 71.5694 349.267 71.4746 351.116C71.4746 351.226 71.5378 352.411 71.601 353.162C71.4983 352.727 71.4035 352.301 71.2929 351.858C71.0875 350.973 70.8505 350.096 70.5977 349.148C70.4634 348.698 70.3291 348.24 70.1869 347.782C70.0447 347.324 69.863 346.857 69.705 346.383C69.31 345.301 68.8518 344.227 68.3699 343.152C69.1599 342.963 71.8854 342.267 72.9835 341.422C74.0816 340.577 75.2429 339.21 75.235 337.749C75.2439 337.405 75.1804 337.064 75.0486 336.746C74.9168 336.429 74.7197 336.143 74.4701 335.907C74.2205 335.67 73.9239 335.489 73.5998 335.375C73.2756 335.261 72.931 335.217 72.5885 335.244C70.5266 335.466 68.7412 338.744 68.3699 340.553C68.3699 340.664 68.2277 341.991 68.1724 342.726C67.8801 342.078 67.5878 341.438 67.2718 340.798C66.3475 338.942 65.36 337.101 64.3883 335.268L63.4956 333.57C63.7721 333.506 67.0506 332.78 68.283 331.8C69.3732 330.963 70.5345 329.588 70.5266 328.127C70.5367 327.783 70.4741 327.44 70.3427 327.122C70.2114 326.805 70.0143 326.518 69.7644 326.281C69.5145 326.045 69.2174 325.864 68.8927 325.75C68.568 325.637 68.2229 325.593 67.8801 325.622C65.8261 325.843 64.0407 329.122 63.6694 330.931C63.6694 331.065 63.464 332.977 63.4482 333.467C62.8004 332.219 62.1605 330.97 61.5838 329.714C60.8017 328.021 60.1288 326.28 59.5693 324.5C59.6957 324.5 63.1164 323.71 64.3804 322.723C65.4706 321.886 66.6319 320.511 66.624 319.049C66.6328 318.706 66.5693 318.364 66.4375 318.046C66.3058 317.728 66.1089 317.442 65.8594 317.205C65.6099 316.968 65.3135 316.786 64.9893 316.671C64.6652 316.556 64.3204 316.511 63.9775 316.537C61.9235 316.766 60.1381 320.045 59.7668 321.854C59.7668 321.972 59.6088 323.434 59.5614 324.121H59.4429C58.9266 322.313 58.575 320.462 58.3922 318.591C58.2737 317.564 58.2184 316.577 58.1947 315.613C58.8425 315.534 61.8208 315.139 63.0532 314.388C64.2856 313.638 65.5338 312.437 65.6839 310.984C65.732 310.642 65.707 310.293 65.6106 309.962C65.5142 309.63 65.3485 309.323 65.1245 309.06C64.9005 308.797 64.6233 308.585 64.3112 308.437C63.9991 308.289 63.6592 308.209 63.3139 308.203C61.2441 308.203 59.1111 311.26 58.5739 313.014C58.5739 313.117 58.3369 314.12 58.1947 314.854C58.1947 314.42 58.1947 313.97 58.1947 313.551C58.1947 311.971 58.2895 310.557 58.3922 309.285C58.4554 308.566 58.5186 307.918 58.5976 307.31C59.1901 306.899 61.5838 305.209 62.3264 304C63.069 302.791 63.6299 301.124 63.1164 299.766C63.0007 299.442 62.8184 299.146 62.5811 298.897C62.3438 298.648 62.0569 298.451 61.7389 298.32C61.4209 298.189 61.079 298.126 60.7352 298.136C60.3914 298.145 60.0534 298.227 59.7431 298.375C57.9103 299.331 57.4205 303.028 57.7286 304.853C57.7286 305.011 58.4475 307.429 58.4791 307.405H58.5186C58.4317 307.989 58.3527 308.613 58.2816 309.301C58.1552 310.565 58.0288 312.003 57.9893 313.575C57.9325 315.266 57.9721 316.96 58.1078 318.647C58.252 320.527 58.564 322.391 59.04 324.216V324.279C58.7161 323.766 57.7523 322.367 57.6654 322.273C56.4567 320.874 53.3046 318.884 51.4007 319.689C51.0879 319.833 50.8087 320.04 50.5813 320.299C50.3538 320.557 50.1832 320.86 50.0804 321.189C49.9776 321.517 49.945 321.864 49.9846 322.205C50.0243 322.547 50.1353 322.877 50.3105 323.173C51.0057 324.453 52.72 325.085 54.0551 325.283Z" fill="#263238"/>
<path d="M266.304 350.562L271.834 360.651C273.856 361.108 275.974 360.828 277.807 359.861C280.896 358.21 284.19 355.737 286.457 354.915C288.725 354.094 295.519 349.765 297.375 346.47C299.232 343.176 299.84 340.94 296.751 341.73C294.115 342.455 291.433 343.003 288.725 343.373C285.841 343.792 279.869 343.373 279.869 343.373L266.304 350.562Z" fill="white" stroke="#263238" stroke-width="0.79" stroke-miterlimit="10"/>
<path d="M195.307 347.403C196.93 349.856 199.031 351.957 201.485 353.58C205.198 355.848 211.376 357.293 210.965 359.347C210.554 361.401 206.225 363.052 201.912 362.436C196.109 361.353 190.394 359.84 184.816 357.91C182.343 356.875 180.905 356.669 180.905 355.026C180.905 353.383 185.44 341.849 185.44 341.849L195.307 347.403Z" fill="white" stroke="#263238" stroke-width="0.79" stroke-miterlimit="10"/>
<path d="M218.936 164.32C218.936 164.32 211.312 172.931 208.421 178.54C205.53 184.149 193.68 202.548 195.331 205.321C196.982 208.094 205.482 216.958 209.827 219.936C214.172 222.914 217.964 226.122 217.964 226.122L221.251 223.641C221.251 223.641 215.262 215.204 211.771 209.476C208.279 203.749 206.178 200.786 206.178 200.786C206.178 200.786 215.831 188.936 218.288 185.847C220.745 182.759 221.606 169.257 221.717 168.049C221.827 166.84 220.879 162.74 218.936 164.32Z" fill="white" stroke="#263238" stroke-width="0.79" stroke-miterlimit="10"/>
<path d="M245.369 122.529C245.369 122.529 248.063 125.428 248.292 128.501C248.522 131.575 247.708 134.537 249.659 135.841C251.61 137.144 253.901 137.421 252.732 138.297C251.563 139.174 249.406 140.81 249.406 140.81C249.406 140.81 248.45 150.171 247.455 150.661C246.46 151.151 238.267 152.17 238.267 152.17C238.267 152.17 235.336 157.131 235.961 159.975C236.585 162.819 241.609 172.157 244.714 177.916C247.818 183.675 247.992 185.927 246.76 191.599C245.527 197.271 241.641 221.382 241.846 225.292C242.051 229.203 244.935 234.97 244.935 234.97C244.935 234.97 261.414 280.276 263.263 285.419C265.112 290.562 264.503 302.72 265.736 307.247C266.968 311.774 275.002 327.637 276.243 330.52C277.483 333.404 282.16 339.645 282.16 339.645L283.187 341.707C283.187 341.707 280.303 344.179 277.009 346.644C274.364 348.596 271.433 350.126 268.319 351.179C266.881 351.589 265.025 352.206 265.025 352.206C265.025 352.206 258.705 341.019 256.224 335.047C253.743 329.074 249.635 322.486 248.814 313.843C247.992 305.201 245.314 297.364 243.047 290.57C240.78 283.776 233.369 271.831 233.369 271.831C233.369 271.831 227.397 295.721 222.657 301.488C217.917 307.255 211.131 322.691 206.802 330.52C202.472 338.349 200.418 340.198 200.008 343.903C199.776 346.079 199.293 348.221 198.57 350.286C198.57 350.286 191.357 348.848 187.652 346.376C185.201 344.685 182.925 342.753 180.858 340.608C180.858 340.608 191.128 318.575 196.097 308.898C201.066 299.22 207.007 277.804 207.212 276.358C207.418 274.912 209.48 262.77 210.301 260.092C211.123 257.414 211.336 257.208 211.131 255.77C210.925 254.333 205.364 245.682 207.623 237.237C209.883 228.792 216.029 220.505 216.029 220.505C216.029 220.505 219.631 207.865 219.6 204.547C219.568 201.229 216.108 193.653 215.152 186.29C214.196 178.927 214.654 168.365 217.98 163.159C221.306 157.953 226.67 149.729 226.97 147.841C227.271 145.953 228.29 143.401 225.754 136.986C223.218 130.571 229.198 124.962 233.361 122.584C237.525 120.206 245.369 122.529 245.369 122.529Z" fill="white" stroke="#263238" stroke-width="0.79" stroke-miterlimit="10"/>
<path d="M245.986 136.212C246.374 136.212 246.689 135.427 246.689 134.458C246.689 133.489 246.374 132.704 245.986 132.704C245.597 132.704 245.283 133.489 245.283 134.458C245.283 135.427 245.597 136.212 245.986 136.212Z" fill="#263238"/>
<path d="M244.121 131.543C244.121 131.543 245.519 129.908 246.926 131.306" stroke="#263238" stroke-width="0.79" stroke-miterlimit="10"/>
<path d="M248.79 143.922C248.084 144.018 247.366 143.888 246.737 143.552C246.109 143.216 245.603 142.69 245.29 142.05" stroke="#263238" stroke-width="0.79" stroke-miterlimit="10"/>
<path d="M240.203 245.263L234.025 269.358" stroke="#263238" stroke-width="0.79" stroke-miterlimit="10"/>
<path d="M255.442 301.274C255.442 301.274 254.17 318.165 253.38 323.9" stroke="#263238" stroke-width="0.79" stroke-miterlimit="10"/>
<path d="M257.915 310.96C257.915 310.96 256.058 324.342 256.058 325.575" stroke="#263238" stroke-width="0.79" stroke-miterlimit="10"/>
<path d="M234.215 136.362C234.215 136.362 230.739 131.251 228.116 134.956C225.493 138.661 227.847 142.405 229.324 142.919C229.683 143.076 230.071 143.156 230.462 143.156C230.854 143.156 231.241 143.076 231.6 142.919C230.723 145.537 229.443 148.002 227.808 150.226C225.177 153.726 218.201 157.131 212.545 156.104C206.888 155.077 196.231 144.918 198.277 136.299C200.324 127.68 202.488 123.398 204.953 123.208C207.418 123.019 208.903 126.226 211.771 126.013C214.638 125.8 218.154 114.597 228.313 112.401C238.473 110.205 247.1 115.143 248.182 118.571C249.264 122 247.755 123.975 246.728 124.046C245.701 124.117 241.617 121.944 239.255 123.564C236.893 125.183 238.465 126.929 238.781 128.351C239.097 129.773 236.703 130.982 236.814 132.42C236.924 133.858 237.248 135.485 236.427 135.58C235.654 135.727 234.908 135.991 234.215 136.362Z" fill="#263238" stroke="#263238" stroke-width="0.79" stroke-miterlimit="10"/>
<path d="M244.69 177.916C243.9 176.439 242.968 174.756 242.028 172.947C241.719 173.102 241.384 173.198 241.04 173.231C238.37 173.429 232.35 164.581 226.315 161.105C223.455 159.454 221.203 159.801 219.623 160.623C219.347 161.065 219.07 161.492 218.833 161.911C220.057 161.383 221.392 161.165 222.72 161.275C224.048 161.385 225.329 161.82 226.449 162.543C232.287 166.034 236.956 173.326 238.157 178.398C239.358 183.47 233.567 191.749 225.864 193.763C220.998 195.035 217.798 193.123 215.737 189.395C217.064 195.715 219.615 201.711 219.687 204.547C219.687 207.849 216.116 220.505 216.116 220.505C216.116 220.505 215.8 221.058 215.326 222.006C225.051 224.866 237.327 226.24 242.083 225.292C242.604 217.929 245.764 196.489 246.823 191.599C247.992 185.927 247.85 183.675 244.69 177.916Z" fill="#263238" stroke="#263238" stroke-width="0.79" stroke-miterlimit="10"/>
<path d="M223.818 163.356C223.818 163.356 229.411 163.562 232.208 167.891C235.005 172.22 247.716 190.493 249.493 192.223C251.271 193.953 253.775 197.065 253.775 197.065C253.775 197.065 273.564 185.484 277.08 182.751C280.595 180.017 283.953 175.222 283.953 175.222C283.953 175.222 284.332 171.888 284.459 170.845C284.585 169.803 287.666 169.573 287.666 169.573C287.666 169.573 289.744 166.943 291.403 167.03C293.062 167.117 293.449 169.558 293.449 169.558C293.449 169.558 295.59 173.326 295.724 175.175C295.858 177.023 292.027 181.021 290.431 181.763C288.921 182.351 287.365 182.811 285.778 183.138C285.778 183.138 273.043 197.911 268.824 202.358C265.035 206.165 260.768 209.463 256.129 212.17C254.549 212.913 248.095 209.666 247.028 209.129C245.962 208.592 218.881 183.13 218.881 183.13" fill="white"/>
<path d="M223.818 163.356C223.818 163.356 229.411 163.562 232.208 167.891C235.005 172.22 247.716 190.493 249.493 192.223C251.271 193.953 253.775 197.065 253.775 197.065C253.775 197.065 273.564 185.484 277.08 182.751C280.595 180.017 283.953 175.222 283.953 175.222C283.953 175.222 284.332 171.888 284.459 170.845C284.585 169.803 287.666 169.573 287.666 169.573C287.666 169.573 289.744 166.943 291.403 167.03C293.062 167.117 293.449 169.558 293.449 169.558C293.449 169.558 295.59 173.326 295.724 175.175C295.858 177.023 292.027 181.021 290.431 181.763C288.921 182.351 287.365 182.811 285.778 183.138C285.778 183.138 273.043 197.911 268.824 202.358C265.035 206.165 260.768 209.463 256.129 212.17C254.549 212.913 248.095 209.666 247.028 209.129C245.962 208.592 218.881 183.13 218.881 183.13" stroke="#263238" stroke-width="0.79" stroke-miterlimit="10"/>
<path d="M180.7 172.157C180.7 172.157 187.652 183.138 190.788 187.846C193.377 191.486 196.226 194.934 199.312 198.164C199.312 198.164 204.913 193.226 209.401 188.747C213.888 184.268 216.124 176.636 216.124 176.636C216.124 176.636 213.43 171.896 213.43 171.035C213.43 170.174 215.902 167.448 216.59 166.777C216.837 166.574 217.126 166.429 217.436 166.351C217.746 166.273 218.069 166.265 218.383 166.327C218.701 166.003 219.087 165.753 219.514 165.598C219.94 165.442 220.396 165.383 220.848 165.426C222.641 165.426 226.899 169.692 227.349 172.828C227.8 175.965 224.663 179.33 223.313 181.345C221.962 183.359 215.918 194.577 213.446 199.957C210.973 205.337 202.686 214.532 200.015 214.967C197.345 215.401 184.318 204.428 182.746 202.414C181.174 200.399 182.746 184.031 181.624 181.337C180.503 178.643 180.7 172.157 180.7 172.157Z" fill="white" stroke="#263238" stroke-width="0.79" stroke-miterlimit="10"/>
<path d="M218.391 166.327C218.391 166.327 223.992 170.585 221.756 171.485C221.461 171.613 221.143 171.678 220.822 171.679C220.5 171.679 220.182 171.615 219.886 171.488C219.591 171.362 219.324 171.177 219.102 170.944C218.88 170.711 218.708 170.436 218.596 170.134C218.596 170.134 220.84 172.828 219.947 175.072" stroke="#263238" stroke-width="0.79" stroke-miterlimit="10"/>
<path d="M220.405 171.928C220.405 171.928 223.565 175.088 225.145 175.293" stroke="#263238" stroke-width="0.79" stroke-miterlimit="10"/>
<path d="M150.008 252.2C150.008 252.2 142.606 280.64 140.141 283.8C137.677 286.96 125.795 297.475 123.551 303.55C121.308 309.625 110.445 333.57 109.102 337.385C107.759 341.201 106.637 342.315 106.637 342.315L116.054 347.474C116.054 347.474 126.016 329.106 131.396 322.383C136.776 315.66 143.728 305.114 148.665 300.184C153.603 295.255 168.171 274.849 168.171 274.849L150.008 252.2Z" fill="white" stroke="#263238" stroke-width="0.79" stroke-miterlimit="10"/>
<path d="M168.171 274.841L150.001 252.2C150.001 252.2 143.459 277.369 140.623 283.01C144.434 287.532 149.554 290.759 155.278 292.245C161.211 284.574 168.171 274.841 168.171 274.841Z" fill="#263238" stroke="#263238" stroke-width="0.79" stroke-miterlimit="10"/>
<path d="M116.054 347.466C116.054 347.466 118.361 343.397 121.071 337.986C117.39 336.901 113.885 335.288 110.667 333.198C109.877 335.466 109.395 336.532 109.087 337.377C107.736 341.193 106.622 342.307 106.622 342.307L116.054 347.466Z" fill="white" stroke="#263238" stroke-width="0.79" stroke-miterlimit="10"/>
<path d="M120.083 351.052C120.083 351.052 119.191 350.61 118.962 347.015C118.732 343.421 118.29 340.964 116.947 343.208L115.604 345.451L106.859 340.292C106.859 340.292 105.279 341.635 105.279 342.986C105.279 344.337 99.0061 350.381 100.349 352.174C101.692 353.967 106.401 353.967 111.109 357.112C115.817 360.256 116.718 361.852 122.548 362.041C128.378 362.231 129.492 360.248 129.492 359.126C129.492 358.004 124.752 356.211 123.22 354.639C122.11 353.501 121.063 352.303 120.083 351.052Z" fill="white" stroke="#263238" stroke-width="0.79" stroke-miterlimit="10"/>
<path d="M129.5 359.126C129.5 358.842 129.208 358.526 128.71 358.17C127.565 358.905 125.021 359.964 120.281 359.347C113.329 358.455 113.329 356.432 109.521 353.075C106.961 350.815 103.201 349.773 100.989 349.33C100.27 350.523 99.883 351.582 100.325 352.174C101.668 353.967 106.377 353.967 111.085 357.112C115.794 360.256 116.694 361.852 122.524 362.041C128.355 362.231 129.5 360.24 129.5 359.126Z" fill="white" stroke="#263238" stroke-width="0.79" stroke-miterlimit="10"/>
<path d="M147.315 235.831C147.315 235.831 144.85 243.897 149.337 255.336C153.824 266.775 172.2 286.723 178.03 291.676L183.86 296.613C183.86 296.613 184.761 310.043 191.262 319.255L213.453 350.649L220.856 345.04C220.856 345.04 214.804 337.867 213.011 330.915C211.218 323.963 201.572 303.115 200.008 296.155C198.443 289.195 192.605 277.1 191.934 275.979C191.262 274.857 179.12 252.01 179.12 252.01L180.945 240.95L147.315 235.831Z" fill="white" stroke="#263238" stroke-width="0.79" stroke-miterlimit="10"/>
<path d="M177.216 290.941C178.97 288.571 184.018 283.191 194.754 281.864C193.379 278.783 192.21 276.429 191.934 275.963C191.262 274.841 179.12 252.01 179.12 252.01L180.945 240.95L147.315 235.799C147.315 235.799 144.85 243.865 149.337 255.304C153.627 266.285 170.659 285.04 177.216 290.941Z" fill="#263238" stroke="#263238" stroke-width="0.79" stroke-miterlimit="10"/>
<path d="M206.43 340.68C210.38 346.297 213.453 350.626 213.453 350.626L220.856 345.017C218.443 342.054 216.376 338.825 214.694 335.395C212.243 337.591 209.452 339.376 206.43 340.68Z" fill="white" stroke="#263238" stroke-width="0.79" stroke-miterlimit="10"/>
<path d="M220.405 338.736C220.405 338.736 217.048 335.576 217.49 339.637C217.933 343.697 219.284 345.017 219.284 345.017C219.284 345.017 210.096 349.275 210.989 351.297C211.521 352.496 212.2 353.624 213.011 354.655C213.011 354.655 218.62 363.4 221.077 362.507C223.534 361.615 227.808 356.006 231.615 354.212C235.423 352.419 240.14 346.36 241.261 342.773C242.383 339.187 241.704 337.844 239.018 339.408C236.332 340.972 232.737 343.002 228.7 343.002C226.213 342.967 223.794 342.185 221.756 340.759L220.405 338.736Z" fill="white" stroke="#263238" stroke-width="0.79" stroke-miterlimit="10"/>
<path d="M240.637 338.776C240.617 338.838 240.601 338.901 240.59 338.965C239.239 345.017 231.616 349.275 228.029 352.64C225.09 355.389 219.457 359.197 217.506 360.485C218.833 361.852 220.168 362.855 221.077 362.507C223.55 361.607 227.808 356.006 231.616 354.212C235.423 352.419 240.14 346.36 241.261 342.773C242.107 340.071 241.925 338.641 240.637 338.776Z" fill="white" stroke="#263238" stroke-width="0.79" stroke-miterlimit="10"/>
<path d="M188.26 119.132C189.487 121.391 190.306 123.849 190.678 126.392C191.199 130.342 191.025 132.625 192.582 134.529C194.138 136.433 195.528 137.642 195.181 138.677C194.833 139.712 192.408 140.928 192.408 140.928C192.408 140.928 190.338 149.405 188.458 150.787C186.578 152.17 180.147 150.448 180.147 150.448C178.595 152.804 177.812 155.583 177.903 158.403C178.077 163.072 181.853 170.34 184.129 177.086C186.404 183.833 186.728 189.545 184.476 198.543C182.225 207.541 181.364 226.92 181.537 232.11C181.711 237.3 181.703 240.065 181.703 240.065C181.703 240.065 184.302 243.004 172.365 243.004C160.429 243.004 149.179 238.509 147.97 237.988C147.288 237.742 146.724 237.249 146.39 236.605C146.39 236.605 149.155 206.324 148.294 203.907C147.433 201.489 146.564 190.39 146.564 190.39C146.564 190.39 146.904 171.525 152.268 164.431C157.632 157.336 163.865 154.224 166.109 150.59C167.46 148.235 167.951 145.485 167.499 142.808C163.479 139.497 160.479 135.115 158.849 130.168C156.076 121.865 163.865 112.867 169.569 110.79C175.273 108.712 187.044 111.485 188.774 113.563C190.504 115.64 188.26 119.132 188.26 119.132Z" fill="white" stroke="#263238" stroke-width="0.79" stroke-miterlimit="10"/>
<path d="M188.774 113.594C187.044 111.516 175.281 108.743 169.569 110.821C163.857 112.899 156.076 121.881 158.849 130.2C160.479 135.146 163.479 139.529 167.499 142.84C167.499 142.84 167.547 143.085 167.594 143.503C169.051 143.066 170.466 142.497 171.82 141.805C171.131 141.292 170.493 140.712 169.917 140.075C169.403 139.38 168.013 134.545 170.785 133.668C173.558 132.791 174.246 134.711 174.735 135.746C175.225 136.781 176.639 135.746 177.161 135.224C177.682 134.703 177.335 130.729 177.335 130.729C178.636 129.737 179.851 128.638 180.969 127.443C182.549 125.713 176.639 121.731 176.639 121.731C176.639 121.731 180.969 121.557 183.22 121.21C184.995 120.8 186.689 120.1 188.237 119.14C188.237 119.14 190.504 115.672 188.774 113.594Z" fill="#263238" stroke="#263238" stroke-width="0.79" stroke-miterlimit="10"/>
<path d="M180.123 150.448L175.802 148.37L178.741 153.039L180.123 150.448Z" fill="#263238" stroke="#263238" stroke-width="0.79" stroke-miterlimit="10"/>
<path d="M189.99 133.439C190.062 134.395 189.848 135.185 189.516 135.216C189.185 135.248 188.853 134.49 188.782 133.534C188.711 132.578 188.916 131.788 189.248 131.764C189.58 131.74 189.911 132.491 189.99 133.439Z" fill="#263238"/>
<path d="M187.217 130.2C187.217 130.2 188.434 128.296 189.643 129.339" stroke="#263238" stroke-width="0.79" stroke-miterlimit="10"/>
<path d="M190.504 143.353C190.504 143.353 187.913 142.311 187.913 141.623" stroke="#263238" stroke-width="0.79" stroke-miterlimit="10"/>
<path d="M181.687 240.065C181.687 240.065 181.687 237.3 181.514 232.11C181.34 226.92 182.201 207.541 184.452 198.543C186.704 189.545 186.356 183.833 184.105 177.086C183.37 174.874 182.462 172.607 181.569 170.387C177.532 171.225 172.95 165.102 170.185 160.496C169.276 158.901 167.923 157.603 166.291 156.761C164.658 155.92 162.817 155.571 160.989 155.756H160.942C160.373 156.238 159.781 156.736 159.165 157.273C161.278 157.786 163.24 158.793 164.888 160.211C166.536 161.63 167.824 163.42 168.645 165.434C172.01 173.508 166.409 183.604 159.678 186.764C154.78 189.055 149.408 186.938 146.856 185.626C146.627 188.502 146.596 190.453 146.596 190.453C146.596 190.453 147.457 201.513 148.326 203.946C149.195 206.38 146.422 236.645 146.422 236.645C146.756 237.288 147.32 237.782 148.002 238.027C149.211 238.548 160.46 243.044 172.397 243.044C184.334 243.044 181.687 240.065 181.687 240.065Z" fill="#E74141" stroke="#263238" stroke-width="0.79" stroke-miterlimit="10"/>
<path d="M161.89 159.375C161.89 159.375 152.924 158.924 149.108 163.633C145.292 168.341 126.917 196.592 126.016 198.835C125.116 201.079 127.359 204.436 127.359 204.436C127.359 204.436 155.388 229.55 156.281 229.772C157.174 229.993 162.34 236.052 163.905 236.502C165.469 236.953 170.635 235.602 171.307 234.922C171.978 234.243 175.115 231.336 173.772 230.182C172.429 229.029 171.528 228.389 171.528 227.718C171.528 227.046 172.2 224.558 169.735 224.131C167.27 223.704 159.647 223.681 159.647 223.681C159.647 223.681 155.839 219.201 150.901 212.249C148.065 208.284 145.446 204.167 143.057 199.917L163.683 179.962" fill="white"/>
<path d="M161.89 159.375C161.89 159.375 152.924 158.924 149.108 163.633C145.292 168.341 126.917 196.592 126.016 198.835C125.116 201.079 127.359 204.436 127.359 204.436C127.359 204.436 155.388 229.55 156.281 229.772C157.174 229.993 162.34 236.052 163.905 236.502C165.469 236.953 170.635 235.602 171.307 234.922C171.978 234.243 175.115 231.336 173.772 230.182C172.429 229.029 171.528 228.389 171.528 227.718C171.528 227.046 172.2 224.558 169.735 224.131C167.27 223.704 159.647 223.681 159.647 223.681C159.647 223.681 155.839 219.201 150.901 212.249C148.065 208.284 145.446 204.167 143.057 199.917L163.683 179.962" stroke="#263238" stroke-width="0.79" stroke-miterlimit="10"/>
</svg>
